<svg width="436" height="436" viewBox="0 0 436 436" fill="none" xmlns="http://www.w3.org/2000/svg">
    <path
        d="M141.693 194.074L110.39 199.083C109.583 201.587 109.089 204.1 109.142 206.457C109.184 208.366 109.578 210.061 110.195 211.571H141.693V194.074"
        fill="#242B3A" />
    <path d="M175.38 211.571C174.511 211.384 173.264 211.105 171.794 210.733V211.571H175.38Z" fill="#242B3A" />
    <path
        d="M177.067 188.411C176.91 188.242 176.75 188.076 176.579 187.926C176.536 187.897 176.489 187.864 176.423 187.817C176.238 187.698 176.048 187.585 175.853 187.48C175.716 187.406 175.574 187.338 175.433 187.272C175.407 187.266 175.309 187.231 175.129 187.161C173.846 186.827 172.904 186.66 171.794 186.547V189.255L177.067 188.411Z"
        fill="#E1E4F5" />
    <path d="M205.836 167.973L205.81 168.865L205.836 167.973Z" fill="#E1E4F5" />
    <path
        d="M171.794 179.853C173.275 179.966 174.759 180.137 176.182 180.513C179.899 181.495 182.585 183.868 183.929 187.313L205.329 183.888L205.74 171.063L205.81 168.865L171.794 173.284V179.853"
        fill="#E1E4F5" />
    <path d="M141.693 177.196L87.7348 184.209L87.7289 184.519L87.374 202.767L110.39 199.083L141.693 194.073V177.196"
        fill="#E1E4F5" />
    <path
        d="M102.256 53.0905L201.99 67.9026L198.992 163.377L187.996 164.599L181.045 165.374L173.709 166.192L163.289 167.353C163.634 168.002 163.604 168.733 163.048 169.339C162.483 169.954 161.236 170.024 160.688 169.339C160.283 168.836 159.906 168.31 159.564 167.768L153.379 168.456C153.73 168.945 154.179 169.372 154.775 169.697C156.665 170.724 154.978 173.603 153.09 172.58C151.521 171.725 150.501 170.387 149.891 168.844L111.763 173.089L99.7119 174.431L102.256 53.0905ZM87.7349 184.209L141.693 177.196V173.18H171.794V173.284L205.81 168.865L205.836 167.973L209.225 60.0414L90.5417 39.7393L87.7349 184.209"
        fill="#242B3A" />
    <path
        d="M103.609 169.467C103.587 170.471 102.025 170.471 102.046 169.467C102.297 157.856 102.328 146.241 102.138 134.628C102.122 133.621 103.684 133.623 103.701 134.628C103.89 146.241 103.859 157.856 103.609 169.467ZM176.098 67.6723C181.991 68.5353 187.885 69.3962 193.779 70.2571C194.771 70.4009 194.347 71.907 193.363 71.7631C187.47 70.9022 181.576 70.0393 175.683 69.1784C174.69 69.0346 175.115 67.5305 176.098 67.6723ZM196.876 71.7775C196.904 70.7728 198.466 70.7708 198.438 71.7775C198.011 87.2471 197.433 102.711 196.893 118.176C196.858 119.179 195.296 119.181 195.331 118.176C195.871 102.711 196.448 87.2471 196.876 71.7775ZM112.31 169.931C110.974 170.04 109.639 170.161 108.303 170.26C107.298 170.334 107.306 168.77 108.303 168.698C109.742 168.591 111.18 168.462 112.618 168.345C114.205 160.477 116.654 153.157 121.092 148.043C124.06 144.642 127.639 142.571 131.248 140.732C131.508 138.624 132.572 136.647 134.03 135.947C135.035 135.462 135.886 135.519 136.641 135.957L138.47 128.647L139.818 129.088L140.172 123.588C140.118 123.411 140.135 123.245 140.204 123.097L140.247 122.427C138.189 119.725 136.818 116.152 135.921 112.365C135.116 112.573 133.579 111.211 133.03 110.543C132.765 110.22 132.525 109.832 132.31 109.398C131.586 107.942 131.162 105.99 131.168 104.484C131.175 102.811 131.922 101.024 133.182 100.339C133.059 99.8545 132.973 99.347 132.939 98.9525C132.631 95.4041 132.323 91.8598 132.015 88.3114C131.847 86.3841 131.682 84.4035 131.996 82.5008C132.309 80.6003 133.215 78.7696 134.492 78.3114C134.537 77.1197 134.974 76.0266 135.469 75.0753C137.478 71.2022 140.624 68.8106 143.855 68.1552C147.085 67.5018 150.385 68.488 153.333 70.4502C154.047 70.9249 154.764 71.4817 155.254 72.3878C155.763 73.3288 156.003 74.4404 156.045 75.5972C157.238 74.313 158.914 74.4548 160.247 75.3342C163.144 77.2471 164.799 82.0426 165.028 86.7807C165.222 90.8222 164.541 94.8452 163.643 98.6587C163.501 99.2587 163.374 100.132 163.127 100.75C164.486 101.389 165.239 103.298 165.173 105.059C165.117 106.563 164.611 108.499 163.827 109.933C163.595 110.356 163.338 110.738 163.061 111.05C162.458 111.728 160.747 113.124 159.995 112.725C159.977 112.78 159.963 112.836 159.944 112.891C158.585 116.771 156.437 120.37 153.918 122.865C156.401 122.616 158.972 123.397 161.031 125.09C165.977 129.156 166.247 135.747 164.446 141.583C164.628 141.708 164.802 141.827 164.958 141.922C166.511 142.861 168.029 143.87 169.522 144.963C171.289 146.249 173.046 147.685 174.647 149.413C174.833 149.606 175.006 149.808 175.188 150.025H175.198L175.274 146.382L175.701 146.389L175.75 144.059C175.38 142.931 175.273 141.566 175.112 140.307C174.591 136.239 173.069 132.462 170.862 129.766C170.337 129.123 169.724 128.396 169.739 127.408C169.752 126.553 170.281 125.828 170.869 125.593C171.457 125.359 172.084 125.521 172.661 125.78C174.398 126.563 175.903 128.252 176.85 130.434C176.855 130.432 176.862 130.43 176.867 130.426C176.935 125.497 177.003 120.57 177.072 115.641C177.089 114.35 177.117 113.002 177.549 111.854C177.981 110.703 178.951 109.83 179.82 110.226C179.812 108.412 180.025 106.132 181.253 105.54C182.076 105.143 182.996 105.815 183.486 106.805C183.977 107.796 184.135 109.037 184.261 110.239C184.654 109.756 185.294 109.924 185.668 110.418C186.041 110.911 186.209 111.634 186.337 112.335C186.73 114.484 186.884 116.725 186.788 118.953C187.399 118.384 188.268 118.918 188.634 119.793C189.001 120.666 189.004 121.745 188.997 122.768C188.952 129.115 190.26 140.625 186.136 145.119L186.106 146.565L186.533 146.571L186.437 151.19L187.697 151.213L187.996 164.599L198.992 163.377L201.99 67.9025L102.256 53.0904L99.7119 174.431L111.763 173.089C111.932 172.031 112.115 170.977 112.31 169.931"
        fill="#D8F2F3" />
    <path
        d="M154.909 128.924L156.63 137.233C156.857 137.05 157.09 136.882 157.34 136.757C159.291 135.785 160.602 137.482 160.994 139.742L160.998 139.744C161.172 139.756 161.354 139.8 161.54 139.859C162.47 136.27 162.487 132.158 160.228 129.062C158.656 126.909 155.769 125.563 153.242 126.309L153.38 129.368L154.909 128.924"
        fill="#D8F2F3" />
    <path
        d="M146.156 145.53C146.28 145.538 146.403 145.53 146.527 145.53L149.264 130.562L153.38 129.368L153.242 126.309C152.593 126.5 151.966 126.82 151.393 127.311C150.395 128.164 149.121 127.605 148.661 126.726C147.861 126.915 147.035 127.009 146.191 126.974C143.834 126.882 141.567 125.774 140.252 123.785C140.209 123.72 140.193 123.654 140.172 123.588L139.818 129.089L144.043 130.473L146.156 145.53"
        fill="#F68168" />
    <path
        d="M140.51 122.75C140.427 122.647 140.344 122.555 140.261 122.448C140.257 122.442 140.252 122.434 140.247 122.427L140.204 123.097C140.271 122.953 140.376 122.832 140.51 122.75"
        fill="#F68168" />
    <path
        d="M138.778 138.464C139.862 140.412 141.016 142.324 142.462 143.734C143.652 144.891 144.903 145.443 146.156 145.53L144.043 130.473L139.818 129.088L138.47 128.647L136.641 135.957C137.443 136.419 138.135 137.309 138.778 138.464"
        fill="#FFF8CD" />
    <path
        d="M153.38 129.368L149.263 130.562L146.526 145.53C149.192 145.517 151.842 143.457 153.908 140.623C154.778 139.434 155.598 138.071 156.63 137.233L154.908 128.924L153.38 129.368"
        fill="#FFF8CD" />
    <path d="M153.135 98.5645L153.115 98.5193L153.13 98.5604L153.135 98.5645Z" fill="#F68168" />
    <path d="M141.2 98.3608L141.181 98.3177L141.195 98.3567L141.2 98.3608Z" fill="#F68168" />
    <path
        d="M137.286 93.9659C137.045 93.6413 137.136 93.2119 137.434 92.9653C139.269 91.4531 141.69 90.6702 144.051 91.1777C144.428 91.2579 144.712 91.5887 144.652 91.9893C144.598 92.353 144.22 92.6715 143.841 92.5914C141.84 92.1619 139.876 92.803 138.285 94.1139C137.987 94.3584 137.507 94.2639 137.286 93.9659V93.9659ZM144.88 112.435C144.885 112.46 144.884 112.46 144.886 112.47C144.89 112.478 144.892 112.481 144.903 112.511L144.946 112.633L145.022 112.809L145.064 112.896L145.115 112.976L145.202 113.099L145.295 113.214C145.304 113.226 145.303 113.224 145.307 113.23L145.559 113.446L145.605 113.481L145.787 113.574L145.91 113.623C145.934 113.631 145.932 113.633 145.942 113.637C145.952 113.637 145.952 113.637 145.978 113.641L146.138 113.666C146.154 113.668 146.192 113.668 146.215 113.668C146.31 113.664 146.402 113.654 146.495 113.637L146.51 113.629L146.639 113.582L146.766 113.522C146.769 113.522 146.767 113.522 146.769 113.522C146.774 113.518 146.772 113.52 146.78 113.514L147.018 113.341C147.027 113.335 147.089 113.278 147.102 113.27L147.175 113.193L147.376 112.945L147.47 112.809C147.479 112.795 147.479 112.797 147.484 112.789C147.485 112.785 147.492 112.772 147.512 112.737C147.693 112.413 148.086 112.189 148.454 112.372C148.775 112.53 149.013 112.965 148.819 113.315C148.214 114.4 147.092 115.328 145.769 115.055C144.455 114.782 143.532 113.58 143.412 112.273C143.378 111.901 143.642 111.507 144.035 111.478C144.411 111.447 144.795 111.702 144.831 112.098C144.841 112.213 144.857 112.324 144.88 112.435V112.435ZM146.535 102.178C147.136 101.712 147.887 101.589 148.607 101.817C149.317 102.043 149.849 102.624 150.163 103.28C150.761 104.527 150.609 106.189 149.87 107.34C149.402 108.067 148.631 108.466 147.856 108.784C147.499 108.932 147.069 108.743 146.927 108.388C146.781 108.026 146.966 107.607 147.324 107.459C147.49 107.391 147.657 107.321 147.819 107.243C148.007 107.155 148.04 107.138 148.207 107.021C148.328 106.937 148.433 106.851 148.509 106.769L148.681 106.557L148.737 106.473L148.745 106.456C148.814 106.319 148.879 106.183 148.931 106.037C148.996 105.856 148.982 105.897 149.023 105.69C149.057 105.517 149.079 105.343 149.09 105.166C149.101 104.991 149.1 105.008 149.083 104.79C149.054 104.416 149.025 104.258 148.893 103.939C148.786 103.68 148.667 103.506 148.461 103.341C148.449 103.331 148.382 103.282 148.365 103.267L148.153 103.167C148.13 103.156 148.128 103.152 148.123 103.148C148.114 103.148 148.111 103.15 148.088 103.146L147.898 103.122C148.056 103.138 147.842 103.13 147.803 103.132L147.709 103.146L147.701 103.15L147.517 103.228C147.629 103.171 147.409 103.308 147.386 103.327C147.081 103.565 146.613 103.483 146.387 103.179C146.152 102.863 146.23 102.417 146.535 102.178V102.178ZM151.742 91.3072C154.121 90.8839 156.507 91.7387 158.29 93.3187C158.975 93.929 158.085 95.0467 157.395 94.4344C155.876 93.0886 153.946 92.3653 151.916 92.727C151.536 92.7948 151.164 92.4722 151.12 92.1044C151.071 91.7017 151.361 91.375 151.742 91.3072V91.3072ZM154.532 101.618C154.45 101.981 154.119 102.298 153.72 102.22C153.649 102.205 153.58 102.172 153.514 102.137C153.222 102.143 152.903 102.004 152.826 101.704C152.485 100.391 152.521 99.0327 152.961 97.7465C153.103 97.3294 153.744 97.1774 154.061 97.4773C154.601 97.9889 154.692 98.743 154.718 99.4498C154.745 100.177 154.692 100.907 154.532 101.618V101.618ZM141.026 97.5431C141.168 97.1281 141.809 96.976 142.127 97.276C142.667 97.7856 142.756 98.5396 142.784 99.2485C142.81 99.9758 142.757 100.705 142.597 101.416C142.516 101.78 142.184 102.094 141.786 102.018C141.714 102.004 141.646 101.971 141.579 101.936C141.287 101.94 140.969 101.802 140.891 101.502C140.551 100.187 140.586 98.8334 141.026 97.5431V97.5431ZM140.51 122.75C140.792 122.577 141.164 122.575 141.401 122.935C142.523 124.632 144.392 125.495 146.401 125.561C147.212 125.587 148.004 125.468 148.762 125.238C148.837 125.139 148.925 125.043 149.033 124.95C150.48 123.713 152.178 123.039 153.918 122.865C156.437 120.37 158.585 116.771 159.944 112.891C159.963 112.836 159.977 112.78 159.995 112.725C159.711 112.575 159.559 112.176 159.663 111.373C159.781 110.461 159.928 109.555 160.065 108.644C160.085 108.429 160.118 108.215 160.16 108.001C160.462 106.062 160.79 104.128 161.165 102.207C161.25 101.772 161.365 101.301 161.6 100.97C160.937 100.089 160.781 98.3033 160.598 97.1507C160.234 94.8536 159.944 92.5297 159.73 90.1874C159.713 89.9963 159.694 89.795 159.625 89.6326C159.546 89.4498 159.413 89.3368 159.287 89.2258C158.358 88.4204 157.502 87.4341 156.745 86.3C155.822 84.9151 155.039 83.2488 154.762 81.3338C154.401 82.0489 153.987 82.6796 153.535 83.1666C152.665 84.1076 151.659 84.7117 150.658 85.2829C146.099 87.8759 141.401 89.908 136.631 91.3503C136.441 94.4303 135.836 97.6828 134.889 100.483C135.126 100.824 135.223 101.318 135.292 101.77C135.758 104.821 136.143 107.895 136.411 110.981C136.49 111.879 136.276 112.273 135.921 112.365C136.818 116.152 138.189 119.725 140.247 122.427C140.252 122.433 140.256 122.442 140.261 122.448C140.344 122.555 140.427 122.647 140.51 122.75"
        fill="#F68168" />
    <path
        d="M134.607 100.204C134.719 100.276 134.811 100.372 134.888 100.483C135.836 97.6829 136.441 94.4304 136.631 91.3504C141.401 89.908 146.098 87.876 150.657 85.283C151.659 84.7118 152.665 84.1077 153.535 83.1667C153.987 82.6797 154.401 82.0489 154.762 81.3339C154.755 81.2887 154.741 81.2456 154.735 81.2004C154.477 79.2279 154.864 76.9657 155.935 75.7041C155.97 75.663 156.009 75.6363 156.045 75.5973C156.003 74.4405 155.763 73.3289 155.254 72.3879C154.764 71.4818 154.047 70.925 153.333 70.4504C150.385 68.4882 147.085 67.5019 143.854 68.1553C140.623 68.8107 137.478 71.2024 135.468 75.0754C134.974 76.0267 134.537 77.1198 134.492 78.3115C133.215 78.7697 132.309 80.6004 131.995 82.501C131.682 84.4036 131.847 86.3843 132.015 88.3116C132.323 91.86 132.631 95.4043 132.939 98.9527C132.973 99.3472 133.059 99.8547 133.181 100.34C133.334 100.255 133.49 100.181 133.658 100.132C133.974 100.042 134.323 100.023 134.607 100.204"
        fill="#5B252C" />
    <path
        d="M154.735 81.2005C154.741 81.2457 154.755 81.2888 154.762 81.334C155.039 83.249 155.822 84.9153 156.745 86.3001C157.502 87.4343 158.358 88.4206 159.287 89.226C159.413 89.3369 159.546 89.45 159.625 89.6328C159.694 89.7951 159.713 89.9965 159.73 90.1876C159.944 92.5299 160.234 94.8537 160.598 97.1508C160.781 98.3035 160.937 100.089 161.6 100.97C161.687 100.847 161.788 100.74 161.914 100.666C162.206 100.496 162.554 100.525 162.866 100.627C162.958 100.656 163.04 100.71 163.127 100.751C163.374 100.132 163.501 99.2589 163.643 98.6589C164.541 94.8455 165.222 90.8225 165.028 86.7809C164.799 82.0429 163.144 77.2473 160.247 75.3344C158.914 74.455 157.238 74.3132 156.045 75.5974C156.01 75.6364 155.97 75.6631 155.936 75.7042C154.864 76.9658 154.478 79.228 154.735 81.2005"
        fill="#5B252C" />
    <path d="M133.476 106.516L133.486 106.524C133.506 106.532 133.509 106.532 133.476 106.516Z" fill="#F68168" />
    <path
        d="M133.444 106.491C133.444 106.495 133.451 106.501 133.459 106.508C133.467 106.512 133.471 106.514 133.476 106.516L133.444 106.491"
        fill="#F68168" />
    <path
        d="M134.864 110.331C134.521 110.264 134.157 109.906 134.262 109.518C134.306 109.357 134.338 109.193 134.356 109.025L134.374 108.757L134.371 108.77L134.364 108.622C134.353 108.451 134.331 108.283 134.299 108.116L134.275 107.999C134.275 107.999 134.252 107.911 134.248 107.892L134.239 107.862L134.195 107.722C134.143 107.566 134.084 107.416 134.016 107.266L133.905 107.042L133.842 106.937L133.69 106.719L133.617 106.631C133.614 106.627 133.616 106.629 133.615 106.627C133.611 106.623 133.613 106.625 133.609 106.621L133.486 106.524C133.476 106.52 133.468 106.514 133.459 106.508C133.454 106.506 133.455 106.506 133.447 106.503L133.332 106.46C132.973 106.351 132.81 105.836 132.968 105.517C133.156 105.137 133.526 105.036 133.91 105.154C134.735 105.406 135.24 106.378 135.503 107.134C135.787 107.954 135.906 108.881 135.675 109.727C135.578 110.087 135.274 110.409 134.864 110.331V110.331ZM136.411 110.981C136.142 107.894 135.758 104.821 135.292 101.77C135.223 101.317 135.126 100.824 134.888 100.483C134.811 100.372 134.719 100.276 134.607 100.204C134.323 100.023 133.975 100.042 133.658 100.132C133.49 100.181 133.334 100.255 133.181 100.339C131.921 101.024 131.175 102.811 131.168 104.484C131.162 105.99 131.586 107.942 132.31 109.399C132.525 109.832 132.765 110.22 133.03 110.543C133.579 111.211 135.116 112.573 135.921 112.365C136.276 112.273 136.489 111.878 136.411 110.981"
        fill="#F68168" />
    <path
        d="M161.915 100.666C161.788 100.74 161.687 100.847 161.6 100.97C161.365 101.301 161.25 101.772 161.165 102.207C160.79 104.128 160.462 106.062 160.16 108.001C160.231 107.638 160.322 107.278 160.455 106.933C160.796 106.045 161.444 105.055 162.378 104.718C162.741 104.587 163.16 104.749 163.307 105.115C163.448 105.464 163.274 105.912 162.91 106.043C162.786 106.088 162.637 106.185 162.529 106.284L162.477 106.337L162.391 106.43L162.227 106.633L162.072 106.861C162.062 106.88 161.995 106.997 161.981 107.023C161.887 107.204 161.806 107.391 161.736 107.58C161.65 107.812 161.643 107.845 161.599 108.032C161.55 108.242 161.513 108.453 161.488 108.665C161.476 108.768 161.467 108.868 161.46 108.969L161.452 109.121L161.452 109.158C161.453 109.386 161.47 109.614 161.499 109.84C161.547 110.21 161.259 110.607 160.877 110.635C160.488 110.666 160.132 110.412 160.081 110.013C160.022 109.559 160.023 109.101 160.065 108.644C159.928 109.555 159.781 110.461 159.663 111.373C159.559 112.176 159.711 112.575 159.995 112.725C160.747 113.124 162.458 111.729 163.061 111.051C163.338 110.738 163.595 110.356 163.827 109.933C164.611 108.499 165.117 106.563 165.173 105.059C165.239 103.298 164.487 101.389 163.127 100.75C163.04 100.709 162.958 100.656 162.866 100.627C162.554 100.524 162.206 100.496 161.915 100.666"
        fill="#F68168" />
    <path
        d="M147.386 103.327C147.409 103.309 147.629 103.171 147.517 103.228L147.7 103.15L147.709 103.146L147.803 103.132C147.842 103.13 148.056 103.138 147.898 103.122L148.088 103.146C148.111 103.15 148.114 103.148 148.123 103.148C148.128 103.152 148.13 103.157 148.153 103.167L148.365 103.268C148.382 103.282 148.449 103.331 148.461 103.341C148.667 103.506 148.786 103.68 148.893 103.939C149.025 104.258 149.054 104.416 149.083 104.79C149.1 105.008 149.101 104.991 149.09 105.166C149.079 105.343 149.057 105.517 149.023 105.69C148.982 105.897 148.996 105.856 148.931 106.037C148.879 106.183 148.814 106.319 148.745 106.456L148.737 106.473L148.681 106.557L148.509 106.769C148.433 106.851 148.328 106.937 148.207 107.021C148.04 107.138 148.007 107.155 147.819 107.243C147.657 107.321 147.49 107.391 147.324 107.459C146.966 107.607 146.781 108.026 146.927 108.388C147.069 108.743 147.499 108.932 147.856 108.784C148.631 108.466 149.402 108.067 149.87 107.34C150.609 106.189 150.761 104.527 150.163 103.28C149.849 102.624 149.317 102.043 148.607 101.817C147.887 101.589 147.135 101.712 146.535 102.179C146.23 102.417 146.152 102.863 146.387 103.179C146.613 103.483 147.081 103.565 147.386 103.327"
        fill="#D25262" />
    <path
        d="M144.035 111.478C143.642 111.507 143.378 111.901 143.412 112.273C143.532 113.58 144.454 114.782 145.768 115.055C147.091 115.328 148.214 114.4 148.819 113.315C149.013 112.965 148.775 112.53 148.454 112.372C148.086 112.189 147.692 112.413 147.511 112.737C147.492 112.772 147.485 112.785 147.483 112.789C147.479 112.797 147.479 112.795 147.47 112.809L147.376 112.945L147.174 113.193L147.101 113.27C147.089 113.278 147.027 113.335 147.018 113.341L146.78 113.514C146.772 113.52 146.774 113.518 146.769 113.522C146.767 113.522 146.769 113.522 146.766 113.522L146.639 113.582L146.51 113.629L146.495 113.637C146.401 113.654 146.309 113.664 146.215 113.668C146.192 113.668 146.154 113.668 146.138 113.666L145.978 113.641C145.952 113.637 145.951 113.637 145.942 113.637C145.932 113.633 145.934 113.631 145.91 113.623L145.787 113.574L145.605 113.481L145.559 113.446L145.307 113.23C145.302 113.224 145.303 113.226 145.294 113.214L145.202 113.099L145.115 112.976L145.064 112.896L145.022 112.809L144.946 112.633L144.903 112.511C144.892 112.481 144.89 112.478 144.886 112.47C144.884 112.46 144.885 112.46 144.88 112.435C144.857 112.324 144.841 112.213 144.831 112.098C144.795 111.702 144.411 111.447 144.035 111.478"
        fill="#D25262" />
    <path
        d="M141.2 98.361L141.195 98.3569L141.181 98.3179L141.2 98.361ZM141.578 101.936C141.645 101.971 141.714 102.004 141.786 102.018C142.184 102.094 142.515 101.78 142.597 101.416C142.757 100.705 142.81 99.976 142.783 99.2487C142.756 98.5398 142.667 97.7857 142.126 97.2762C141.809 96.9762 141.168 97.1282 141.026 97.5433C140.586 98.8336 140.55 100.188 140.891 101.503C140.968 101.803 141.287 101.94 141.578 101.936"
        fill="#5B252C" />
    <path
        d="M153.135 98.5642L153.13 98.5601L153.115 98.5191L153.135 98.5642ZM152.961 97.7465C152.521 99.0327 152.485 100.391 152.826 101.704C152.903 102.004 153.222 102.143 153.514 102.137C153.58 102.172 153.649 102.205 153.72 102.219C154.119 102.298 154.45 101.981 154.532 101.617C154.692 100.907 154.745 100.177 154.718 99.4498C154.692 98.743 154.601 97.9889 154.061 97.4773C153.744 97.1773 153.103 97.3294 152.961 97.7465"
        fill="#5B252C" />
    <path
        d="M143.84 92.5915C144.22 92.6716 144.598 92.3531 144.652 91.9895C144.712 91.5888 144.428 91.258 144.051 91.1779C141.69 90.6704 139.269 91.4532 137.434 92.9654C137.135 93.212 137.045 93.6414 137.285 93.9661C137.507 94.264 137.987 94.3585 138.285 94.114C139.876 92.8031 141.84 92.1621 143.84 92.5915"
        fill="#5B252C" />
    <path
        d="M151.916 92.7272C153.946 92.3655 155.876 93.0888 157.395 94.4346C158.085 95.0469 158.975 93.9292 158.29 93.3189C156.507 91.7389 154.121 90.8841 151.742 91.3074C151.361 91.3752 151.071 91.7019 151.12 92.1046C151.164 92.4724 151.536 92.795 151.916 92.7272"
        fill="#5B252C" />
    <path
        d="M133.459 106.508C133.468 106.514 133.476 106.52 133.486 106.524L133.476 106.516C133.471 106.514 133.467 106.512 133.459 106.508Z"
        fill="#D25262" />
    <path
        d="M135.676 109.727C135.906 108.881 135.787 107.954 135.503 107.134C135.24 106.378 134.736 105.406 133.91 105.154C133.526 105.037 133.156 105.137 132.968 105.517C132.81 105.836 132.974 106.352 133.332 106.461L133.448 106.504C133.455 106.506 133.454 106.506 133.46 106.508C133.452 106.502 133.444 106.495 133.444 106.491L133.477 106.516C133.51 106.532 133.506 106.532 133.486 106.524L133.609 106.621C133.613 106.625 133.612 106.623 133.615 106.627C133.616 106.629 133.614 106.627 133.617 106.631L133.69 106.719L133.843 106.937L133.906 107.042L134.016 107.266C134.084 107.416 134.143 107.566 134.195 107.722L134.239 107.862L134.249 107.893C134.252 107.911 134.275 107.999 134.275 107.999L134.299 108.117C134.331 108.283 134.353 108.451 134.364 108.622L134.371 108.77L134.374 108.758L134.356 109.025C134.339 109.193 134.306 109.358 134.262 109.518C134.157 109.906 134.521 110.264 134.864 110.331C135.274 110.41 135.578 110.087 135.676 109.727"
        fill="#D25262" />
    <path
        d="M160.08 110.013C160.132 110.411 160.488 110.666 160.877 110.635C161.259 110.607 161.547 110.21 161.499 109.84C161.47 109.614 161.453 109.386 161.452 109.158L161.452 109.121L161.46 108.969C161.467 108.868 161.476 108.768 161.488 108.665C161.513 108.453 161.55 108.242 161.598 108.032C161.642 107.845 161.65 107.812 161.736 107.58C161.806 107.391 161.887 107.204 161.981 107.023C161.995 106.997 162.062 106.88 162.071 106.861L162.227 106.633L162.391 106.43L162.477 106.337L162.529 106.284C162.636 106.185 162.786 106.088 162.91 106.043C163.274 105.912 163.447 105.464 163.307 105.115C163.16 104.749 162.741 104.586 162.378 104.718C161.444 105.055 160.796 106.045 160.455 106.933C160.322 107.278 160.231 107.638 160.16 108.001C160.118 108.215 160.085 108.429 160.065 108.644C160.023 109.101 160.021 109.559 160.08 110.013"
        fill="#D25262" />
    <path
        d="M146.191 126.974C147.034 127.009 147.86 126.915 148.66 126.726C148.42 126.265 148.401 125.721 148.762 125.238C148.004 125.468 147.212 125.587 146.4 125.561C144.392 125.495 142.523 124.632 141.4 122.935C141.163 122.575 140.792 122.577 140.51 122.75C140.376 122.832 140.271 122.953 140.204 123.097C140.134 123.245 140.118 123.412 140.172 123.588C140.193 123.654 140.209 123.72 140.252 123.785C141.567 125.774 143.833 126.882 146.191 126.974"
        fill="#D25262" />
    <path
        d="M155.856 146.015C155.743 146.097 155.571 146.146 155.431 146.12C155.286 146.091 155.141 146.021 155.056 145.896C154.967 145.762 154.941 145.628 154.95 145.47L154.952 145.431C154.952 145.16 154.92 144.891 154.86 144.628C154.797 144.404 154.717 144.186 154.605 143.985C154.535 143.864 154.492 143.738 154.514 143.592C154.534 143.455 154.62 143.298 154.739 143.218C154.977 143.056 155.37 143.066 155.538 143.338C155.967 144.03 156.127 144.829 156.081 145.639C156.073 145.776 155.963 145.935 155.856 146.015V146.015ZM132.848 139.921C133.328 139.664 133.856 139.425 134.334 139.61L134.336 139.612C134.513 139.325 134.689 139.037 134.866 138.752C134.936 138.639 135.117 138.556 135.243 138.542C135.383 138.525 135.561 138.569 135.67 138.663C135.779 138.76 135.868 138.891 135.879 139.041L135.877 139.193C135.862 139.296 135.822 139.386 135.758 139.469C135.564 139.781 135.371 140.095 135.178 140.408C135.29 140.588 135.401 140.767 135.511 140.96C136.297 142.302 137.19 143.522 138.172 144.566C138.174 144.568 138.176 144.568 138.178 144.57C138.342 144.334 138.507 144.098 138.671 143.861C138.75 143.748 138.915 143.666 139.048 143.65C139.188 143.633 139.366 143.677 139.475 143.773C139.584 143.868 139.673 143.999 139.684 144.149C139.697 144.307 139.654 144.445 139.563 144.576C139.373 144.848 139.184 145.121 138.995 145.394C138.996 145.394 138.996 145.394 138.997 145.394C140.094 146.43 141.283 147.264 142.515 147.901C142.52 147.905 142.524 147.905 142.529 147.907C142.561 147.856 142.584 147.798 142.618 147.745C142.69 147.632 142.867 147.552 142.994 147.535C143.135 147.519 143.313 147.562 143.422 147.658C143.531 147.753 143.62 147.885 143.631 148.034L143.629 148.187C143.618 148.258 143.58 148.318 143.545 148.38C143.549 148.382 143.552 148.384 143.555 148.384C144.47 148.772 145.402 149.037 146.339 149.189C146.334 149.146 146.337 149.103 146.332 149.06C146.294 148.762 146.523 148.445 146.83 148.421C147.14 148.398 147.426 148.602 147.467 148.92C147.484 149.054 147.485 149.189 147.497 149.323H147.497C147.81 149.345 148.139 149.343 148.455 149.339C149.418 149.319 150.387 149.171 151.338 148.895H151.338C151.301 148.526 151.243 148.158 151.154 147.798C151.11 147.636 151.064 147.476 151.009 147.317C150.911 147.036 151.027 146.68 151.326 146.576C151.608 146.477 151.965 146.592 152.07 146.892C152.255 147.424 152.371 147.977 152.443 148.534C152.446 148.532 152.45 148.532 152.454 148.53C153.377 148.189 154.281 147.716 155.16 147.151C156.419 146.327 157.3 144.741 158.142 143.235C158.38 142.828 158.612 142.281 158.88 141.753C158.881 141.751 158.882 141.749 158.883 141.747C158.699 141.671 158.55 141.517 158.532 141.305C158.523 141.195 158.502 141.088 158.479 140.981C158.439 140.845 158.386 140.712 158.322 140.586C158.264 140.492 158.201 140.403 158.129 140.321C158.078 140.274 158.025 140.231 157.969 140.192L157.853 140.138L157.689 140.114C157.553 140.112 157.39 139.993 157.313 139.89C157.23 139.777 157.18 139.604 157.207 139.464C157.236 139.321 157.306 139.175 157.432 139.091L157.559 139.017C157.656 138.98 157.754 138.969 157.856 138.984C158.356 138.994 158.809 139.327 159.109 139.703C159.319 139.966 159.45 140.284 159.544 140.613C159.549 140.607 159.554 140.597 159.558 140.59C159.879 140.132 160.243 139.808 160.657 139.744C160.772 139.734 160.874 139.723 160.986 139.742H160.994C160.602 137.482 159.291 135.785 157.34 136.756C157.09 136.882 156.857 137.05 156.63 137.233C155.598 138.071 154.778 139.434 153.909 140.623C151.842 143.457 149.193 145.518 146.527 145.53C146.403 145.53 146.28 145.538 146.156 145.53C144.903 145.444 143.652 144.891 142.463 143.734C141.016 142.325 139.862 140.412 138.778 138.464C138.135 137.309 137.443 136.419 136.641 135.957C135.886 135.52 135.035 135.462 134.03 135.947C132.572 136.648 131.508 138.624 131.248 140.732C131.248 140.732 131.249 140.732 131.249 140.732C131.782 140.459 132.316 140.184 132.848 139.921"
        fill="#727FA6" />
    <path
        d="M149.537 161.441C150.785 156.031 154.611 152.01 157.706 147.589C154.81 150.679 151.274 153.206 147.02 153.545C140.313 154.081 135.92 147.901 131.819 143.551C131.314 143.015 132.238 142.339 132.737 142.869C136.63 146.999 140.922 153.14 147.339 152.364C153.102 151.667 157.369 146.72 160.514 142.267C160.601 142.144 160.708 142.088 160.818 142.064C161.023 141.548 161.211 141.024 161.369 140.484C161.429 140.278 161.486 140.069 161.54 139.859C161.354 139.799 161.172 139.756 160.998 139.744L160.994 139.742H160.986C160.874 139.723 160.772 139.734 160.657 139.744C160.243 139.808 159.878 140.132 159.558 140.59C159.553 140.597 159.549 140.607 159.543 140.613C159.596 140.796 159.652 140.981 159.667 141.166C159.679 141.318 159.642 141.474 159.545 141.593C159.459 141.7 159.308 141.792 159.169 141.803C159.07 141.811 158.974 141.786 158.883 141.747C158.882 141.749 158.881 141.751 158.88 141.753C158.612 142.281 158.379 142.828 158.142 143.235C157.299 144.741 156.419 146.327 155.16 147.151C154.28 147.716 153.376 148.189 152.453 148.53C152.45 148.532 152.446 148.532 152.442 148.534C152.457 148.651 152.484 148.766 152.494 148.883C152.519 149.181 152.312 149.497 151.996 149.52C151.696 149.543 151.386 149.341 151.359 149.023C151.355 148.98 151.342 148.939 151.338 148.895H151.338C150.387 149.171 149.417 149.319 148.455 149.339C148.138 149.343 147.809 149.345 147.497 149.323H147.496C147.541 149.853 147.553 150.387 147.516 150.917C147.496 151.217 147.154 151.453 146.867 151.398C146.543 151.336 146.364 151.071 146.386 150.749C146.395 150.611 146.4 150.471 146.403 150.334C146.406 149.952 146.381 149.569 146.339 149.189C145.402 149.037 144.469 148.772 143.555 148.384C143.551 148.384 143.548 148.382 143.545 148.38C143.531 148.402 143.53 148.431 143.513 148.452L143.541 148.404C143.352 148.719 143.209 149.056 143.108 149.405L143.121 149.362L143.045 149.557L142.902 149.721C142.789 149.806 142.617 149.855 142.477 149.828C142.332 149.799 142.187 149.73 142.102 149.602C142.023 149.485 141.958 149.321 141.996 149.179C142.065 148.92 142.143 148.663 142.25 148.419C142.327 148.24 142.428 148.074 142.529 147.907C142.524 147.905 142.519 147.905 142.515 147.901C141.283 147.264 140.093 146.43 138.996 145.394C138.996 145.394 138.995 145.394 138.995 145.394C138.857 145.592 138.719 145.791 138.582 145.988C138.503 146.101 138.338 146.181 138.205 146.198C138.064 146.214 137.886 146.171 137.778 146.076C137.669 145.98 137.58 145.848 137.568 145.7C137.556 145.54 137.599 145.405 137.69 145.273C137.853 145.039 138.015 144.805 138.177 144.57C138.176 144.568 138.173 144.568 138.172 144.566C137.189 143.522 136.296 142.302 135.51 140.96C135.401 140.767 135.289 140.588 135.177 140.408C135.139 140.469 135.101 140.531 135.063 140.593C134.993 140.706 134.812 140.788 134.686 140.802C134.545 140.819 134.368 140.777 134.259 140.681C134.15 140.584 134.061 140.453 134.05 140.305L134.051 140.151C134.067 140.048 134.107 139.958 134.171 139.877C134.226 139.789 134.281 139.701 134.335 139.612L134.334 139.61C133.856 139.425 133.328 139.664 132.847 139.921C132.316 140.184 131.782 140.459 131.248 140.732C131.248 140.732 131.248 140.732 131.248 140.732C127.639 142.571 124.06 144.642 121.091 148.043C116.654 153.157 114.204 160.478 112.618 168.345C117.016 167.985 121.412 167.591 125.8 167.122C126.8 167.016 126.789 168.579 125.8 168.684C121.309 169.163 116.811 169.567 112.31 169.931C112.115 170.977 111.932 172.031 111.762 173.089L149.891 168.844C148.985 166.547 148.997 163.786 149.537 161.441"
        fill="#727FA6" />
    <path
        d="M175.171 150.995H175.177L175.198 150.025H175.188C175.005 149.808 174.833 149.606 174.647 149.413C173.046 147.685 171.289 146.249 169.522 144.963C168.029 143.87 166.511 142.861 164.957 141.922C164.801 141.827 164.627 141.708 164.446 141.583C163.7 143.999 162.608 146.288 161.332 148.209C158.952 151.792 155.937 154.953 154.019 158.834C152.778 161.345 151.525 165.867 153.379 168.456L159.564 167.767C158.662 166.331 158.034 164.751 158.005 162.999C157.968 160.683 159.257 158.612 160.445 156.713C160.94 155.92 161.908 155.68 162.728 156.115C163.508 156.526 163.79 157.656 163.327 158.396C162.834 159.185 162.367 159.991 161.939 160.817C161.734 161.211 161.616 161.462 161.527 161.737C161.462 161.943 161.406 162.15 161.371 162.364C161.376 162.378 161.344 162.74 161.343 162.805C161.334 163.334 161.354 163.506 161.475 163.995C161.522 164.182 161.577 164.369 161.639 164.552C161.677 164.663 161.717 164.772 161.759 164.879C161.771 164.907 161.784 164.934 161.815 165.004C162.002 165.39 162.209 165.766 162.441 166.126C162.651 166.455 162.902 166.8 163.047 166.978C163.144 167.098 163.221 167.225 163.288 167.352L173.709 166.192L174.414 150.983L175.171 150.995"
        fill="#727FA6" />
    <path
        d="M157.856 138.984C157.754 138.969 157.656 138.98 157.559 139.017L157.432 139.09C157.306 139.175 157.236 139.321 157.207 139.464C157.18 139.604 157.23 139.777 157.313 139.89C157.39 139.992 157.553 140.112 157.689 140.114L157.853 140.138L157.969 140.192C158.025 140.231 158.078 140.274 158.129 140.321C158.201 140.403 158.264 140.492 158.322 140.586C158.386 140.712 158.439 140.845 158.479 140.981C158.502 141.088 158.523 141.194 158.532 141.305C158.55 141.517 158.699 141.671 158.883 141.747C158.974 141.786 159.07 141.811 159.169 141.803C159.309 141.792 159.459 141.7 159.546 141.593C159.642 141.474 159.68 141.318 159.667 141.166C159.652 140.981 159.596 140.796 159.544 140.613C159.45 140.284 159.319 139.966 159.109 139.703C158.809 139.327 158.356 138.994 157.856 138.984"
        fill="#5D6C9E" />
    <path
        d="M154.738 143.218C154.62 143.299 154.534 143.455 154.513 143.592C154.492 143.738 154.535 143.864 154.604 143.985C154.717 144.186 154.797 144.404 154.86 144.628C154.92 144.891 154.952 145.16 154.951 145.431L154.95 145.47C154.941 145.629 154.966 145.762 155.056 145.896C155.141 146.021 155.286 146.091 155.431 146.12C155.571 146.146 155.743 146.097 155.855 146.015C155.963 145.935 156.073 145.777 156.081 145.639C156.127 144.829 155.967 144.03 155.538 143.338C155.37 143.066 154.977 143.056 154.738 143.218"
        fill="#5D6C9E" />
    <path
        d="M151.326 146.576C151.026 146.68 150.91 147.036 151.009 147.317C151.064 147.476 151.11 147.636 151.154 147.798C151.243 148.158 151.301 148.526 151.338 148.895C151.342 148.939 151.356 148.98 151.359 149.023C151.386 149.341 151.697 149.543 151.996 149.52C152.312 149.497 152.519 149.181 152.494 148.883C152.484 148.766 152.458 148.651 152.443 148.534C152.37 147.977 152.255 147.424 152.07 146.892C151.965 146.592 151.607 146.477 151.326 146.576"
        fill="#5D6C9E" />
    <path
        d="M146.83 148.421C146.523 148.446 146.294 148.762 146.332 149.06C146.337 149.103 146.334 149.146 146.339 149.189C146.382 149.569 146.407 149.952 146.404 150.334C146.4 150.471 146.396 150.611 146.386 150.749C146.364 151.071 146.543 151.336 146.868 151.398C147.154 151.454 147.496 151.217 147.517 150.917C147.553 150.387 147.541 149.853 147.497 149.323C147.485 149.189 147.484 149.054 147.467 148.92C147.426 148.602 147.14 148.398 146.83 148.421"
        fill="#5D6C9E" />
    <path
        d="M143.631 148.034C143.62 147.884 143.531 147.753 143.422 147.658C143.313 147.562 143.135 147.519 142.994 147.535C142.866 147.552 142.69 147.632 142.618 147.745C142.584 147.798 142.561 147.856 142.529 147.907C142.428 148.073 142.327 148.24 142.25 148.419C142.144 148.663 142.065 148.92 141.996 149.179C141.958 149.321 142.023 149.485 142.102 149.602C142.188 149.73 142.332 149.799 142.477 149.828C142.617 149.855 142.789 149.806 142.902 149.721L143.046 149.557L143.121 149.362L143.108 149.405C143.21 149.056 143.352 148.719 143.542 148.404L143.513 148.452C143.53 148.431 143.532 148.402 143.545 148.38C143.58 148.318 143.618 148.258 143.629 148.187L143.631 148.034"
        fill="#5D6C9E" />
    <path
        d="M139.684 144.149C139.673 143.999 139.584 143.868 139.475 143.773C139.366 143.677 139.188 143.634 139.047 143.65C138.915 143.666 138.75 143.749 138.671 143.862C138.507 144.098 138.342 144.334 138.178 144.57C138.015 144.805 137.853 145.039 137.69 145.273C137.599 145.405 137.556 145.54 137.568 145.701C137.58 145.848 137.669 145.98 137.778 146.077C137.887 146.171 138.064 146.214 138.206 146.198C138.338 146.181 138.503 146.101 138.582 145.988C138.72 145.791 138.857 145.592 138.995 145.394C139.184 145.121 139.373 144.848 139.562 144.577C139.654 144.445 139.697 144.307 139.684 144.149"
        fill="#5D6C9E" />
    <path
        d="M135.877 139.193L135.879 139.041C135.868 138.891 135.779 138.76 135.67 138.663C135.561 138.569 135.383 138.526 135.242 138.542C135.117 138.556 134.936 138.639 134.866 138.752C134.689 139.037 134.512 139.325 134.336 139.612C134.281 139.701 134.226 139.789 134.171 139.878C134.107 139.958 134.067 140.048 134.052 140.151L134.05 140.305C134.061 140.453 134.15 140.584 134.259 140.681C134.368 140.777 134.546 140.819 134.686 140.802C134.812 140.788 134.993 140.706 135.063 140.593C135.101 140.531 135.139 140.469 135.177 140.408C135.371 140.095 135.564 139.781 135.757 139.469C135.822 139.386 135.862 139.296 135.877 139.193"
        fill="#5D6C9E" />
    <path
        d="M147.34 152.364C140.922 153.14 136.63 146.999 132.737 142.869C132.238 142.339 131.315 143.015 131.819 143.551C135.92 147.901 140.313 154.081 147.02 153.545C151.274 153.206 154.81 150.679 157.706 147.589C158.926 145.846 160.031 144.04 160.818 142.064C160.708 142.088 160.601 142.144 160.514 142.267C157.37 146.72 153.102 151.667 147.34 152.364"
        fill="#5D6C9E" />
    <path
        d="M178.701 126.376C178.924 126.333 179.151 126.313 179.375 126.276C179.265 126.144 179.19 125.98 179.195 125.774C179.306 120.903 179.313 116.033 179.219 111.163C179.202 110.251 180.621 110.07 180.638 110.991C180.734 115.988 180.723 120.987 180.608 125.984C180.607 126.025 180.59 126.054 180.583 126.093C181.494 125.982 182.409 125.922 183.325 125.906C183.197 125.807 183.112 125.651 183.114 125.425C183.155 120.781 183.194 116.136 183.235 111.492C183.243 110.584 184.662 110.403 184.654 111.32C184.613 115.963 184.573 120.607 184.533 125.25C184.53 125.567 184.353 125.789 184.129 125.912C184.756 125.92 185.381 125.949 186.007 126C186.004 124.065 185.985 122.129 185.947 120.196C185.939 119.81 186.159 119.45 186.569 119.401C186.922 119.357 187.358 119.635 187.366 120.023C187.404 121.983 187.424 123.946 187.426 125.908C187.426 125.992 187.412 126.074 187.392 126.152C188.144 126.387 187.922 127.636 187.059 127.525C184.327 127.173 181.578 127.274 178.874 127.796C177.97 127.971 177.802 126.551 178.701 126.376V126.376ZM183.78 137.728C183.996 138.667 184.12 139.633 184.117 140.531C184.115 141.049 184.032 141.55 183.891 142.033L186.202 141.949L186.136 145.119C190.259 140.625 188.952 129.115 188.997 122.768C189.004 121.745 189.001 120.666 188.634 119.793C188.268 118.918 187.399 118.384 186.788 118.953C186.883 116.725 186.73 114.484 186.337 112.335C186.209 111.634 186.041 110.911 185.667 110.418C185.294 109.925 184.654 109.756 184.261 110.239C184.134 109.037 183.977 107.796 183.486 106.806C182.995 105.815 182.076 105.143 181.252 105.54C180.025 106.132 179.811 108.412 179.819 110.227C178.951 109.83 177.981 110.703 177.549 111.854C177.117 113.002 177.089 114.35 177.072 115.641C177.003 120.57 176.935 125.497 176.867 130.426C176.998 130.323 177.171 130.266 177.386 130.299C181.067 130.878 183.397 134.188 183.78 137.728"
        fill="#F68168" />
    <path
        d="M183.891 142.033C184.032 141.55 184.115 141.049 184.117 140.531C184.121 139.633 183.997 138.667 183.78 137.728C183.785 137.78 183.795 137.829 183.799 137.88C183.884 138.797 182.465 138.971 182.381 138.053C182.108 135.094 180.289 132.203 177.176 131.712C176.491 131.606 176.443 130.775 176.85 130.434C175.903 128.252 174.398 126.563 172.661 125.781C172.084 125.522 171.457 125.359 170.869 125.594C170.281 125.828 169.752 126.553 169.739 127.408C169.724 128.396 170.337 129.123 170.862 129.767C173.069 132.462 174.591 136.239 175.112 140.307C175.273 141.567 175.38 142.931 175.75 144.059L175.787 142.321L183.891 142.033"
        fill="#F68168" />
    <path
        d="M186.105 146.565L186.135 145.119L186.202 141.949L183.891 142.033L175.786 142.32L175.75 144.059L175.701 146.389L186.105 146.565"
        fill="#F68168" />
    <path
        d="M180.608 125.984C180.723 120.987 180.735 115.988 180.638 110.991C180.621 110.07 179.202 110.251 179.219 111.164C179.313 116.033 179.307 120.903 179.195 125.774C179.19 125.98 179.266 126.144 179.376 126.276C179.777 126.208 180.179 126.14 180.583 126.093C180.59 126.054 180.607 126.025 180.608 125.984Z"
        fill="#D25262" />
    <path
        d="M184.533 125.25C184.573 120.607 184.613 115.963 184.654 111.32C184.662 110.403 183.243 110.584 183.235 111.492C183.194 116.136 183.154 120.781 183.114 125.425C183.112 125.651 183.197 125.807 183.325 125.906C183.593 125.902 183.861 125.91 184.129 125.912C184.353 125.789 184.53 125.567 184.533 125.25"
        fill="#D25262" />
    <path
        d="M187.392 126.152C187.412 126.074 187.426 125.992 187.426 125.908C187.424 123.946 187.405 121.983 187.366 120.023C187.358 119.635 186.923 119.358 186.57 119.401C186.159 119.45 185.94 119.81 185.947 120.196C185.985 122.129 186.004 124.065 186.007 126C186.428 126.033 186.849 126.058 187.268 126.111C187.317 126.117 187.35 126.14 187.392 126.152"
        fill="#D25262" />
    <path
        d="M178.874 127.796C181.578 127.274 184.327 127.174 187.059 127.525C187.923 127.636 188.144 126.387 187.392 126.152C187.35 126.14 187.317 126.118 187.268 126.111C186.849 126.058 186.428 126.033 186.007 126C185.381 125.949 184.756 125.92 184.129 125.912C183.861 125.91 183.593 125.902 183.325 125.906C182.409 125.922 181.494 125.982 180.583 126.093C180.179 126.14 179.777 126.208 179.376 126.276C179.151 126.313 178.925 126.333 178.701 126.376C177.803 126.551 177.97 127.971 178.874 127.796"
        fill="#D25262" />
    <path
        d="M177.176 131.712C180.289 132.203 182.108 135.094 182.381 138.053C182.465 138.971 183.884 138.797 183.799 137.88C183.794 137.829 183.785 137.78 183.78 137.728C183.397 134.188 181.067 130.878 177.386 130.299C177.171 130.266 176.998 130.323 176.867 130.426C176.862 130.43 176.855 130.432 176.85 130.434C176.443 130.775 176.491 131.605 177.176 131.712"
        fill="#D25262" />
    <path
        d="M175.61 151.01L176.001 151.018L186.009 151.178L186.436 151.19H186.437L186.533 146.572L186.105 146.565L175.701 146.389L175.274 146.383L175.198 150.025L175.177 150.995L175.61 151.01"
        fill="#FFF8CD" />
    <path
        d="M186.437 151.191H186.436L186.009 151.178L176.001 151.018L175.61 151.01L175.177 150.995H175.17L174.414 150.983L173.709 166.192L181.045 165.374L187.995 164.599L187.697 151.213L186.437 151.191Z"
        fill="#727FA6" />
    <path
        d="M83.0131 182.259L82.6768 199.28L87.3741 202.767L87.729 184.519C86.1968 183.5 84.5903 182.98 83.0131 182.259"
        fill="#A7B2D5" />
    <path
        d="M87.7286 184.519L87.7345 184.209L90.5414 39.7393L85.7625 43.224L83.0127 182.259C84.5899 182.98 86.1964 183.5 87.7286 184.519"
        fill="#161A22" />
    <path
        d="M196.893 118.176C197.433 102.711 198.01 87.2473 198.438 71.7777C198.466 70.771 196.904 70.773 196.876 71.7777C196.448 87.2473 195.871 102.711 195.331 118.176C195.296 119.181 196.858 119.179 196.893 118.176"
        fill="white" />
    <path
        d="M102.138 134.628C102.328 146.241 102.297 157.856 102.046 169.467C102.025 170.471 103.587 170.471 103.608 169.467C103.859 157.856 103.89 146.241 103.701 134.628C103.684 133.623 102.122 133.621 102.138 134.628Z"
        fill="white" />
    <path
        d="M125.8 167.122C121.412 167.591 117.016 167.985 112.618 168.345C111.18 168.462 109.742 168.592 108.303 168.698C107.306 168.77 107.298 170.334 108.303 170.26C109.639 170.161 110.974 170.04 112.31 169.931C116.811 169.567 121.309 169.163 125.8 168.684C126.789 168.579 126.8 167.016 125.8 167.122"
        fill="white" />
    <path
        d="M175.683 69.1785C181.576 70.0394 187.469 70.9024 193.363 71.7633C194.347 71.9071 194.771 70.4011 193.778 70.2572C187.885 69.3963 181.991 68.5354 176.098 67.6724C175.114 67.5307 174.69 69.0347 175.683 69.1785Z"
        fill="white" />
    <path d="M65.7646 373.69H74.3881V258.084H65.7646V373.69Z" fill="#161A22" />
    <path d="M53.5005 258.084V373.69H65.7648V258.084H53.5005Z" fill="#242B3A" />
    <path
        d="M107.149 355.708C106.35 354.3 106.619 352.56 107.524 351.37C108.428 350.181 109.866 349.476 111.362 349.073C112.102 348.874 112.855 348.747 113.616 348.673V258.084H104.992V373.69H113.616V361.066C112.223 360.029 110.836 358.983 109.439 357.949C108.571 357.306 107.673 356.63 107.149 355.708"
        fill="#161A22" />
    <path d="M92.728 258.084V373.69H104.992V258.084H92.728Z" fill="#242B3A" />
    <path d="M331.38 373.69H340.006V312.539C337.133 312.765 334.257 312.969 331.38 313.145V373.69Z" fill="#161A22" />
    <path
        d="M319.118 313.745V371.299C321.13 371.49 323.158 371.862 324.791 373.018C325.064 373.214 325.315 373.444 325.553 373.69H327.742H331.38V313.145C327.296 313.398 323.207 313.593 319.118 313.745"
        fill="#242B3A" />
    <path
        d="M104.992 258.084H216.311C219.851 256.599 223.451 255.243 227.069 253.975C226.389 253.595 225.797 253.125 225.349 252.512C224.304 251.084 223.987 249.128 223.909 247.263C223.802 244.719 224.098 242.062 225.282 239.927C227.33 236.219 231.3 235.033 235.222 234.585C232.818 233.634 230.437 232.633 228.07 231.598H53.5005V258.084H65.7648H74.3882H92.7279H104.992Z"
        fill="#242B3A" />
    <path
        d="M303.404 371.674V314.105C300.53 314.127 297.655 314.132 294.781 314.109V372.887C297.666 372.435 300.526 372.005 303.404 371.674Z"
        fill="#161A22" />
    <path
        d="M292.527 331.146C291.65 345.015 291.255 358.925 291.35 372.833C291.35 373.029 291.35 373.226 291.346 373.423C292.496 373.244 293.641 373.066 294.781 372.887V314.109C294.6 314.107 294.417 314.103 294.236 314.101C293.986 316.344 293.429 318.847 293.304 320.386C293.012 323.969 292.753 327.557 292.527 331.146"
        fill="#242B3A" />
    <path d="M228.07 231.598C222.952 229.356 217.926 226.915 212.997 224.289H70.6598H53.5005V226.81V231.598H228.07Z"
        fill="#161A22" />
    <path
        d="M252.716 214.09C252.868 213.25 253.02 212.409 253.178 211.571H236.547C241.816 212.343 247.082 213.163 252.311 214.123C252.44 214.082 252.576 214.076 252.716 214.09"
        fill="#C96C33" />
    <path
        d="M212.997 224.289C212.136 223.829 211.265 223.391 210.41 222.921C210.402 222.915 210.394 222.909 210.383 222.904C209.2 223.102 207.961 222.972 206.755 222.835C199.853 222.035 192.854 221.176 186.432 218.524C185.827 218.273 185.259 217.973 184.961 217.359C184.75 216.923 184.881 216.383 184.649 215.97C184.613 215.904 184.551 215.845 184.505 215.783C183.895 215.871 183.5 215.391 183.464 214.895C182.409 214.238 180.997 213.706 180.212 213.268C179.746 213.007 179.268 212.736 178.927 212.327C178.748 212.111 178.618 211.844 178.561 211.571H175.38H171.794V211.674H165.426H148.061H141.693V211.571H110.195H70.6598H34.5V224.289H53.5005H70.6598H212.997Z"
        fill="#C96C33" />
    <path
        d="M165.426 200.846C165.73 200.899 166.033 200.952 166.336 201.002C167.175 201.143 167.909 201.222 168.967 201.252C170.031 201.285 170.908 201.248 171.794 201.096V189.255V186.547C171.266 186.494 170.704 186.451 170.042 186.409C168.437 186.311 166.851 186.276 165.426 186.453V200.846"
        fill="#BF1B2C" />
    <path
        d="M168.379 207.901C167.391 207.842 166.406 207.714 165.426 207.568V211.674H171.794V211.571V210.733V207.809C170.657 207.932 169.509 207.967 168.379 207.901Z"
        fill="#BF1B2C" />
    <path
        d="M165.426 179.767C166.828 179.646 168.238 179.633 169.654 179.711C170.362 179.752 171.078 179.798 171.794 179.853V173.284V173.179H165.426V179.767"
        fill="#BF1B2C" />
    <path
        d="M176.182 180.513C174.759 180.137 173.275 179.966 171.794 179.853C171.078 179.798 170.362 179.753 169.654 179.711C168.238 179.633 166.828 179.646 165.426 179.767V186.453C166.851 186.276 168.437 186.311 170.042 186.41C170.704 186.451 171.266 186.494 171.794 186.547C172.904 186.66 173.846 186.827 175.129 187.162C175.309 187.231 175.407 187.266 175.433 187.273C175.574 187.338 175.716 187.406 175.853 187.48C176.047 187.585 176.238 187.698 176.423 187.817C176.489 187.864 176.536 187.897 176.579 187.926C176.75 188.076 176.91 188.242 177.067 188.411C177.079 188.425 177.093 188.438 177.106 188.45C177.088 188.489 177.608 189.249 177.462 188.951C177.895 189.833 178.112 190.94 178.266 191.902C178.244 191.641 178.254 191.723 178.295 192.146C178.318 192.399 178.335 192.652 178.344 192.904C178.361 193.346 178.355 193.79 178.328 194.232C178.321 194.378 178.307 194.521 178.292 194.667C178.284 194.702 178.265 194.813 178.234 195C178.13 195.446 178.029 195.888 177.885 196.325C177.833 196.486 177.773 196.644 177.714 196.8C177.701 196.819 177.653 196.919 177.567 197.108C177.34 197.507 177.124 197.899 176.871 198.284C176.641 198.608 176.608 198.653 176.772 198.419C176.625 198.594 176.471 198.762 176.311 198.925C176.086 199.155 175.848 199.381 175.593 199.582C175.602 199.555 174.86 200.036 174.757 200.094C174.65 200.153 173.856 200.517 173.878 200.525C173.122 200.809 172.454 200.983 171.794 201.096C170.908 201.248 170.031 201.285 168.967 201.253C167.909 201.222 167.175 201.144 166.336 201.002C166.033 200.953 165.73 200.899 165.426 200.846V207.569C166.406 207.714 167.391 207.842 168.379 207.901C169.509 207.967 170.657 207.932 171.794 207.809C172.665 207.714 173.531 207.575 174.373 207.361C178.138 206.402 181.546 203.973 183.331 200.478C185.202 196.81 185.441 192.588 184.375 188.641C184.25 188.181 184.096 187.741 183.929 187.314C182.585 183.868 179.899 181.495 176.182 180.513"
        fill="#BF1B2C" />
    <path d="M165.427 207.568V173.179H141.693V211.674H148.061H165.427V207.568Z" fill="#ED1C24" />
    <path
        d="M154.019 158.834C155.938 154.953 158.952 151.793 161.332 148.209C162.609 146.288 163.701 143.999 164.446 141.583C166.247 135.748 165.977 129.156 161.031 125.09C158.972 123.397 156.401 122.616 153.918 122.865C152.178 123.04 150.48 123.713 149.033 124.95C148.925 125.043 148.837 125.139 148.762 125.238C148.401 125.721 148.42 126.265 148.661 126.726C149.121 127.605 150.395 128.164 151.393 127.311C151.966 126.82 152.593 126.5 153.242 126.309C155.769 125.563 158.656 126.908 160.228 129.062C162.488 132.158 162.471 136.27 161.54 139.859C161.486 140.069 161.43 140.278 161.369 140.484C161.211 141.024 161.023 141.548 160.818 142.064C160.031 144.04 158.926 145.846 157.706 147.589C154.612 152.01 150.785 156.031 149.537 161.441C148.997 163.786 148.985 166.547 149.891 168.844C150.501 170.387 151.521 171.725 153.09 172.58C154.978 173.603 156.665 170.724 154.775 169.697C154.18 169.372 153.73 168.945 153.379 168.456C151.525 165.867 152.778 161.345 154.019 158.834Z"
        fill="white" />
    <path
        d="M162.441 166.126C162.209 165.766 162.003 165.39 161.815 165.004C161.784 164.934 161.771 164.907 161.759 164.879C161.717 164.772 161.677 164.663 161.639 164.552C161.577 164.369 161.522 164.182 161.475 163.995C161.354 163.506 161.334 163.334 161.343 162.806C161.344 162.74 161.376 162.378 161.371 162.364C161.406 162.15 161.462 161.943 161.527 161.737C161.616 161.462 161.734 161.211 161.939 160.817C162.367 159.991 162.834 159.185 163.327 158.396C163.79 157.657 163.508 156.526 162.728 156.116C161.908 155.68 160.94 155.92 160.445 156.713C159.257 158.612 157.968 160.683 158.005 162.999C158.034 164.751 158.662 166.331 159.564 167.768C159.906 168.31 160.283 168.836 160.688 169.339C161.236 170.024 162.483 169.954 163.048 169.339C163.604 168.733 163.634 168.002 163.289 167.352C163.221 167.225 163.144 167.098 163.048 166.979C162.902 166.8 162.651 166.455 162.441 166.126"
        fill="white" />
    <path
        d="M255.269 80.1442C255.031 79.9716 254.793 79.7764 254.563 79.5627C253.969 79.0059 253.449 78.3238 253.227 77.5759C252.652 75.6527 254.795 74.7713 256.075 73.8919C256.208 73.8015 256.373 73.6699 256.552 73.5261C256.196 71.4139 255.954 69.2935 255.871 67.1607C255.596 60.0167 256.65 52.4781 260.396 46.2669C260.176 45.0053 260.094 43.7314 260.215 42.4555C260.246 42.137 260.303 41.8226 260.355 41.5083C256.591 43.6513 252.95 46.3901 250.258 49.7557C245.458 55.7533 243.85 64.163 246.097 71.5064C248.154 78.2313 253.396 83.8796 259.894 86.5383C259.362 84.8741 258.851 83.2015 258.38 81.5208C257.32 81.5105 255.974 80.6558 255.269 80.1442"
        fill="#200D0F" />
    <path
        d="M156.128 376.729C155.359 376.99 154.532 376.618 153.812 376.244C146.436 372.412 139.716 367.321 134.03 361.257C133.049 360.212 132.062 359.067 131.762 357.664C131.651 357.146 131.659 356.552 132.006 356.154C132.322 355.79 132.841 355.679 133.323 355.667C134.839 355.628 136.261 356.336 137.611 357.025C139.837 358.163 142.771 360.409 145.285 361.093C145.471 361.144 145.655 361.185 145.836 361.218C146.044 361.255 146.241 361.261 146.434 361.255C140.476 357.756 134.305 354.635 127.976 351.939C123.361 349.975 118.323 348.212 113.616 348.673C112.855 348.746 112.102 348.874 111.362 349.073C109.867 349.476 108.428 350.181 107.524 351.37C106.62 352.56 106.35 354.3 107.149 355.708C107.673 356.63 108.571 357.306 109.44 357.949C110.836 358.983 112.223 360.029 113.616 361.066C119.261 365.278 124.887 369.515 130.518 373.746C134.028 376.384 137.543 379.016 141.072 381.629C142.887 382.975 144.706 384.317 146.531 385.648C147.307 386.217 149.482 388.584 150.415 388.521C151.02 388.482 151.531 388.073 151.984 387.67C153.625 386.211 156.25 383.398 158.221 380.306C160.174 377.243 161.476 373.908 160.551 371.344C159.529 372.593 158.569 373.918 157.544 375.4C157.169 375.944 156.753 376.517 156.128 376.729"
        fill="#200D0F" />
    <path
        d="M192.141 339.042C187.55 338.354 183.405 335.642 180.45 332.061C178.392 329.568 176.782 326.601 174.307 324.578C171.559 329.055 168.701 333.464 165.725 337.793C162.079 343.096 158.265 348.284 154.29 353.345C153.411 354.465 151.946 355.761 151.047 357.111C149.816 358.693 148.523 361.181 146.434 361.255C146.241 361.262 146.043 361.255 145.836 361.218C145.654 361.186 145.47 361.144 145.284 361.093C142.77 360.409 139.836 358.163 137.611 357.025C136.261 356.337 134.838 355.628 133.323 355.667C132.841 355.679 132.322 355.79 132.005 356.154C131.658 356.552 131.651 357.146 131.761 357.664C132.061 359.067 133.048 360.212 134.03 361.257C139.716 367.321 146.436 372.412 153.812 376.244C154.532 376.618 155.358 376.99 156.128 376.729C156.752 376.517 157.169 375.944 157.544 375.4C158.568 373.918 159.528 372.593 160.551 371.344C161.784 369.836 163.11 368.443 164.77 367.043C167.841 364.455 170.908 361.862 173.962 359.252C179.858 354.216 185.704 349.119 191.426 343.883C193.128 342.328 194.816 340.754 196.472 339.149C195.026 339.273 193.581 339.256 192.141 339.042"
        fill="#F68168" />
    <path
        d="M248.197 389.304C250.513 387.105 256.508 385.694 258.006 383.528C255.705 383.062 253.404 382.595 251.105 382.129C250.934 382.221 250.778 382.307 250.665 382.375C243.159 386.945 232.855 386.83 224.458 385.611C223.529 385.476 222.592 385.318 221.725 384.952C221.158 384.713 220.626 384.389 220.153 383.99C219.894 383.772 219.633 383.483 219.662 383.146C219.695 382.751 220.094 382.507 220.453 382.344C222.847 381.274 225.52 381.066 228.107 380.645C229.855 380.362 231.68 379.961 233.26 379.114C227.141 379.844 221.067 380.904 215.086 382.293C209.128 383.676 202.845 385.64 199.222 390.15C198.203 391.418 197.42 392.905 197.39 394.475C197.36 396.045 198.208 397.687 199.758 398.385C200.773 398.843 201.953 398.86 203.087 398.868C216.321 398.952 229.598 399.236 242.849 399.345C243.326 395.57 245.397 391.958 248.197 389.304"
        fill="#200D0F" />
    <path
        d="M220.453 382.345C220.094 382.507 219.695 382.751 219.662 383.146C219.633 383.483 219.894 383.773 220.153 383.99C220.626 384.389 221.158 384.714 221.725 384.952C222.592 385.318 223.529 385.476 224.458 385.611C232.855 386.83 243.159 386.945 250.665 382.375C250.778 382.308 250.934 382.221 251.105 382.129C251.006 382.108 250.907 382.09 250.809 382.069C250.392 381.985 249.962 381.895 249.603 381.667C248.127 380.721 248.873 378.377 250.077 377.105C250.638 376.509 251.263 375.989 251.931 375.525C251.9 375.451 251.861 375.361 251.84 375.301C251.446 374.144 251.049 372.99 250.653 371.835C250.554 371.543 250.414 371.231 250.221 370.993C249.557 368.432 248.894 365.87 248.23 363.31C246.441 356.4 244.861 349.429 243.315 342.441C240.694 342.355 238.09 341.668 235.816 340.36C232.744 338.592 230.291 335.831 227.077 334.337C223.377 332.618 219.529 332.817 215.592 333.758C216.239 335.038 216.886 336.318 217.531 337.598C220.62 343.713 223.695 349.832 226.699 355.989C228.199 359.067 229.681 362.153 231.137 365.252C231.836 366.739 232.528 368.229 233.215 369.723C233.554 370.46 234.394 372.702 235.236 374.637C235.327 376.3 235.619 377.633 233.866 378.761C233.671 378.887 233.467 379.004 233.26 379.115C231.68 379.961 229.855 380.362 228.107 380.645C225.52 381.067 222.847 381.274 220.453 382.345"
        fill="#F68168" />
    <path
        d="M247.353 156.718C244.978 153.958 243.88 150.225 242.748 146.829C241.47 142.995 240.425 139.087 239.599 135.131C239.356 133.977 241.127 133.488 241.368 134.642C242.14 138.335 243.102 141.986 244.267 145.573C245.339 148.873 246.344 152.74 248.651 155.419C249.42 156.311 248.125 157.616 247.353 156.718V156.718ZM248.259 145.076C245.738 140.2 243.829 135.014 242.615 129.647C242.354 128.495 244.125 128.008 244.386 129.158C245.325 133.311 246.689 137.334 248.425 141.191C248.46 140.734 248.485 140.276 248.53 139.82C248.263 138.957 247.998 138.094 247.731 137.231C247.474 136.395 248.37 135.918 248.999 136.177C249.046 135.873 249.112 135.571 249.165 135.267C248.456 133.389 247.875 131.501 247.47 129.629C247.269 128.702 247.123 127.751 246.695 126.904C246.27 126.06 245.489 125.32 244.546 125.244C243.221 125.133 242.042 126.633 242.461 127.895C241.454 127.967 240.603 128.764 240.219 129.701C239.833 130.636 239.839 131.684 239.946 132.69C239.993 133.132 240.055 133.603 239.872 134.007C239.687 134.412 239.294 134.675 238.978 134.985C237.677 136.261 237.665 138.326 237.84 140.141C238.405 146.017 239.917 151.223 242.948 156.288C241.721 156.038 240.398 155.937 239.251 156.446C236.192 157.809 237.91 159.756 239.744 160.956C242.091 162.489 244.285 164.112 246.231 166.149C248.271 168.281 250.258 171.501 252.979 172.828C253.373 173.019 253.743 173.102 254.096 173.112C254.135 173.005 254.164 172.9 254.203 172.793C250.18 164.16 248.138 154.605 248.259 145.076"
        fill="#F68168" />
    <path
        d="M244.267 145.573C243.102 141.986 242.14 138.334 241.367 134.642C241.127 133.487 239.356 133.976 239.598 135.131C240.424 139.086 241.47 142.994 242.748 146.828C243.88 150.225 244.978 153.958 247.353 156.717C248.125 157.615 249.42 156.311 248.651 155.419C246.344 152.74 245.339 148.873 244.267 145.573"
        fill="#D25262" />
    <path
        d="M244.386 129.158C244.125 128.008 242.354 128.495 242.615 129.647C243.829 135.014 245.738 140.2 248.259 145.076C248.276 143.779 248.329 142.485 248.426 141.19C246.689 137.334 245.325 133.311 244.386 129.158"
        fill="#D25262" />
    <path
        d="M247.731 137.231C247.998 138.094 248.263 138.957 248.53 139.82C248.649 138.602 248.807 137.387 248.998 136.177C248.37 135.918 247.474 136.395 247.731 137.231"
        fill="#D25262" />
    <path
        d="M265.461 86.6391C263.825 86.9782 262.124 85.5317 261.807 83.89L268.559 83.2757C268.707 84.8639 267.76 86.1666 265.461 86.6391V86.6391ZM259.36 70.7443C259.34 69.8197 259.568 68.9012 259.999 68.0855C260.388 67.354 261.008 66.75 261.82 66.5219C262.609 66.3 263.441 66.4541 264.162 66.8137C265.473 67.4691 266.112 68.9711 266.311 70.3498C266.358 70.6765 266.35 70.9497 266.194 71.2456C266.052 71.5127 265.781 71.6894 265.5 71.7798C265.22 71.8702 264.852 71.8065 264.604 71.6627C264.382 71.5312 264.109 71.2353 264.07 70.9662C264.02 70.623 263.95 70.282 263.846 69.9512L263.774 69.7416C263.774 69.7395 263.774 69.7395 263.772 69.7395C263.755 69.7272 263.735 69.682 263.726 69.6512L263.535 69.2978L263.49 69.232L263.352 69.0759L263.229 68.9608L263.221 68.9567L262.995 68.8252L262.826 68.7738C262.808 68.7677 262.753 68.7574 262.705 68.7492C262.664 68.7451 262.625 68.743 262.611 68.743L262.416 68.7512C262.43 68.7533 262.43 68.7512 262.442 68.7512C262.444 68.7512 262.442 68.7512 262.444 68.7512H262.442C262.477 68.7512 262.5 68.7512 262.52 68.7512C262.594 68.7451 262.627 68.7492 262.52 68.7512C262.494 68.7533 262.465 68.7574 262.438 68.7656L262.401 68.7759L262.311 68.8293L262.259 68.8786L262.198 68.9444L262.101 69.0923L261.972 69.3327L261.931 69.4129C261.914 69.5526 261.822 69.7149 261.785 69.8484C261.756 69.9532 261.733 70.058 261.713 70.1649L261.705 70.2142L261.688 70.4196C261.684 70.5265 261.684 70.6354 261.686 70.7443C261.698 71.3956 261.142 71.8784 260.523 71.9072C259.886 71.9359 259.373 71.3504 259.36 70.7443V70.7443ZM274.363 77.3171C273.879 75.3755 273.256 73.4687 272.527 71.6298C270.696 67.0068 268.142 62.8482 265.703 58.5704C263.453 57.4691 260.961 56.8732 258.448 56.8629C256.948 56.8568 256.95 54.5309 258.448 54.5371C260.332 54.5432 262.177 54.8514 263.946 55.4021C262.432 52.5728 260.955 49.4641 260.396 46.267C256.65 52.4783 255.596 60.0168 255.871 67.1609C255.954 69.2936 256.196 71.4141 256.552 73.5263C257.145 73.0496 257.934 72.4106 258.524 72.4496C258.754 72.4661 258.902 72.6962 259.003 72.9016C259.775 74.4632 260.157 76.2138 260.125 77.9561C260.106 78.9752 260.116 80.9971 258.935 81.4429C258.764 81.5066 258.575 81.523 258.38 81.521C258.851 83.2017 259.362 84.8742 259.894 86.5385C261.187 90.5759 262.598 94.5681 263.825 98.509C264.748 101.474 266.237 103.163 268.775 103.584C270.466 101.653 271.996 99.5897 273.131 97.2125C276.061 91.0752 276.03 83.9927 274.363 77.3171"
        fill="#F68168" />
    <path
        d="M263.766 69.723C263.77 69.7312 263.77 69.7292 263.772 69.7394C263.774 69.7394 263.776 69.7456 263.778 69.7456L263.766 69.723"
        fill="#F68168" />
    <path d="M263.726 69.651L263.765 69.7229C263.726 69.6181 263.716 69.6161 263.726 69.651Z" fill="#F68168" />
    <path
        d="M253.227 77.5759C253.449 78.3238 253.969 79.0059 254.562 79.5628C254.793 79.7764 255.031 79.9716 255.269 80.1442C255.974 80.6558 257.32 81.5106 258.38 81.5208C258.575 81.5229 258.764 81.5065 258.935 81.4428C260.116 80.9969 260.106 78.9751 260.124 77.956C260.157 76.2136 259.775 74.4631 259.003 72.9015C258.902 72.696 258.754 72.4659 258.524 72.4495C257.934 72.4104 257.145 73.0495 256.551 73.5261C256.373 73.67 256.208 73.8015 256.075 73.8919C254.795 74.7713 252.652 75.6527 253.227 77.5759"
        fill="#F68168" />
    <path
        d="M258.448 56.8629C260.961 56.8732 263.453 57.469 265.703 58.5703C265.294 57.8512 264.889 57.1321 264.491 56.4068C264.31 56.076 264.129 55.7411 263.946 55.402C262.177 54.8514 260.332 54.5432 258.448 54.537C256.95 54.5309 256.948 56.8567 258.448 56.8629Z"
        fill="#200D0F" />
    <path
        d="M261.808 83.8899C262.124 85.5315 263.825 86.978 265.461 86.639C267.76 86.1664 268.707 84.8638 268.559 83.2755L261.808 83.8899"
        fill="#FFF8CD" />
    <path
        d="M315.97 111.792C316.597 111.566 317.213 111.322 317.842 111.106C318.383 110.919 318.748 111.287 318.833 111.722C319.007 111.759 319.18 111.813 319.352 111.87C319.026 110.506 319.005 108.959 319.061 107.408C318.054 108.918 316.979 110.387 315.839 111.815C315.884 111.807 315.927 111.801 315.97 111.792Z"
        fill="#FFF8CD" />
    <path
        d="M318.358 257.378C316.723 257.184 315.089 256.969 313.46 256.714C308.023 255.865 302.593 254.665 297.577 252.403C297.097 252.188 296.614 251.943 296.149 251.67C294.397 253.5 291.808 254 289.402 254.294C288.081 254.454 286.755 254.602 285.43 254.737C283.291 258.539 280.756 262.114 278.494 265.843C276.211 269.611 274.021 273.437 271.793 277.238C271.539 277.674 271.28 278.105 271.025 278.539C272.95 278.522 274.875 278.483 276.801 278.481C288.79 278.469 300.779 278.756 312.747 279.313C313.655 273.164 315.044 267.1 316.965 261.417C317.345 260.295 317.806 258.882 318.358 257.378"
        fill="#200D0F" />
    <path
        d="M349.793 257.367C349.618 257.386 349.441 257.404 349.267 257.425C346.817 257.706 344.362 257.902 341.903 258.048C338.638 264.75 336.328 272.015 334.565 279.389C337.119 279.43 339.657 279.572 342.118 279.895C345.646 274.779 347.407 268.508 348.64 262.354C348.909 261.012 349.343 259.284 349.793 257.367"
        fill="#200D0F" />
    <path
        d="M227.077 334.337C230.291 335.831 232.744 338.592 235.816 340.359C238.09 341.668 240.694 342.355 243.315 342.441C245.327 342.507 247.351 342.227 249.245 341.545C245.839 331.925 242.96 322.12 240.597 312.194C235.537 311.781 230.85 310.653 228.434 307.69C226.537 305.381 226.003 302.243 225.91 299.254C225.777 295.181 226.391 290.937 228.635 287.546C232.457 281.734 239.675 279.891 246.835 279.241C242.377 271.565 238.273 263.686 235.335 255.323C232.403 255.356 229.245 255.19 227.069 253.975C223.451 255.243 219.851 256.599 216.311 258.085C206.134 262.36 196.453 267.7 188.268 275.04C182.478 280.23 177.562 286.314 172.85 292.498C167.57 299.428 162.485 306.573 158.685 314.413C158.961 317.477 161.871 319.626 164.754 320.692C167.638 321.761 170.805 322.196 173.376 323.881C173.703 324.097 174.009 324.333 174.307 324.578C176.782 326.601 178.393 329.568 180.451 332.061C183.405 335.642 187.55 338.354 192.141 339.042C193.582 339.256 195.026 339.273 196.473 339.149C202.897 338.603 209.354 335.25 215.592 333.758C219.529 332.817 223.377 332.617 227.077 334.337"
        fill="#200D0F" />
    <path
        d="M257.427 256.009C255.699 255.991 253.977 255.95 252.255 255.898C248.982 255.794 245.715 255.615 242.453 255.387C245.559 263.587 249.821 271.321 254.339 278.878C257.289 278.783 260.24 278.697 263.188 278.637C263.977 277.335 264.76 276.026 265.533 274.713C267.85 270.778 270.113 266.811 272.473 262.901C273.992 260.382 275.631 257.93 277.207 255.442C270.624 255.892 264.023 256.075 257.427 256.009"
        fill="#200D0F" />
    <path
        d="M298.165 177.7C297.639 177.741 297.07 177.328 297.267 176.677C299.284 170.009 301.066 162.867 300.002 155.933C300.065 157.805 299.893 159.699 299.673 161.565C299.219 165.45 298.569 169.298 297.797 173.122C297.384 175.166 296.924 177.203 296.443 179.233C296.468 179.21 296.486 179.183 296.513 179.161C297.098 178.713 297.643 178.216 298.165 177.7Z"
        fill="#FFF8CD" />
    <path
        d="M318.286 112.715C316.725 113.251 315.184 113.828 313.651 114.426C310.02 118.554 305.89 122.339 301.534 125.824C296.429 129.906 291.095 133.794 286.079 137.991C288.837 138.731 291.489 139.83 293.792 141.552C296.815 143.812 298.964 146.985 300.304 150.486C303.595 159.078 301.504 168.39 298.948 176.88C300.793 174.813 302.175 172.337 302.95 169.674C303.25 168.645 304.861 169.085 304.559 170.118C303.342 174.301 300.801 177.952 297.355 180.601C296.996 180.878 296.418 180.654 296.213 180.303C296.207 180.289 296.207 180.276 296.2 180.262C294.263 188.248 291.875 196.136 289.467 203.983C286.211 212.939 284.499 222.101 280.922 230.918C280.838 231.123 280.751 231.326 280.669 231.532C280.462 232.397 280.215 233.248 279.932 234.076C285.14 233.897 290.585 234.061 294.318 237.638C295.859 226.656 299.032 215.458 301.559 204.864C305.292 189.212 309.969 173.808 315.473 158.69C317.164 154.075 318.976 149.423 321.954 145.515C325.747 140.535 330.493 137.073 335.79 134.737C334.323 131.47 332.671 128.295 330.725 125.289C328.453 121.778 324.062 113.42 319.352 111.87C319.18 111.813 319.007 111.759 318.833 111.722C318.907 112.109 318.761 112.55 318.286 112.715"
        fill="#FFF8CD" />
    <path
        d="M315.839 111.815C315.829 111.827 315.82 111.839 315.81 111.852C315.863 111.831 315.917 111.811 315.97 111.792C315.927 111.8 315.884 111.807 315.839 111.815Z"
        fill="#FFF8CD" />
    <path
        d="M254.203 172.793C254.164 172.9 254.136 173.005 254.096 173.112C253.231 175.538 252.759 178.006 253.118 180.942C253.601 184.871 254.959 188.842 257.349 191.935C258.099 188.678 258.865 185.425 259.638 182.175C257.548 179.216 255.732 176.075 254.203 172.793"
        fill="#FFF8CD" />
    <path
        d="M300.002 155.933C299.782 154.501 299.451 153.079 298.964 151.671C297.758 148.174 295.64 144.916 292.607 142.742C290.189 141.008 287.396 139.98 284.52 139.317C281.627 141.815 278.863 144.439 276.342 147.291C280.482 146.911 284.641 148.17 287.914 151.441C294.343 157.287 297.189 164.924 297.797 173.122C298.57 169.298 299.219 165.45 299.673 161.565C299.893 159.699 300.065 157.805 300.002 155.933Z"
        fill="#FFF8CD" />
    <path
        d="M253.266 214.304C260.244 215.606 267.158 217.156 273.938 219.165C276.786 220.009 281.105 220.398 281.355 223.965C281.532 226.465 281.261 229.054 280.669 231.532C280.751 231.327 280.838 231.123 280.922 230.918C284.499 222.101 286.21 212.939 289.467 203.983C291.875 196.136 294.263 188.248 296.2 180.262C296.003 179.884 296.147 179.5 296.443 179.233C296.924 177.203 297.384 175.166 297.797 173.122C297.189 164.924 294.343 157.287 287.914 151.441C284.641 148.17 280.482 146.911 276.342 147.291C275.37 148.39 274.431 149.52 273.537 150.691C266.301 160.19 262.249 171.865 260.724 183.708C260.346 183.206 259.999 182.686 259.638 182.175C258.865 185.425 258.099 188.678 257.349 191.934C255.849 198.458 254.427 204.998 253.178 211.571C253.019 212.409 252.867 213.25 252.715 214.09C252.913 214.11 253.11 214.174 253.266 214.304"
        fill="#F68168" />
    <path
        d="M222.27 211.859C223.196 213.975 217.831 215.487 216.749 217.149C215.366 219.274 213.757 221.894 211.205 222.713C210.936 222.8 210.661 222.859 210.383 222.904C210.394 222.909 210.402 222.915 210.41 222.921C211.265 223.391 212.136 223.829 212.997 224.289C217.926 226.915 222.952 229.356 228.07 231.598C230.437 232.633 232.818 233.634 235.222 234.585C236.056 234.491 236.888 234.427 237.7 234.382C242.231 234.135 246.757 233.971 251.29 233.899C258.46 233.79 265.635 233.899 272.8 234.224C274.976 234.324 277.427 234.16 279.932 234.076C280.215 233.248 280.462 232.397 280.669 231.532C281.261 229.054 281.532 226.465 281.356 223.965C281.105 220.398 276.786 220.009 273.938 219.165C267.158 217.155 260.244 215.606 253.266 214.304C253.445 214.452 253.572 214.667 253.593 214.957C253.909 219.471 255.122 223.901 257.147 227.949C257.676 229.003 256.091 229.933 255.563 228.875C253.385 224.523 252.097 219.81 251.756 214.957C251.725 214.499 251.982 214.226 252.311 214.123C247.082 213.163 241.816 212.343 236.547 211.571C229.537 210.546 222.52 209.609 215.565 208.563C215.545 208.585 215.526 208.612 215.504 208.635C218.44 209.284 221.604 210.334 222.27 211.859"
        fill="#F68168" />
    <path
        d="M318.833 111.722C318.749 111.287 318.383 110.919 317.842 111.106C317.214 111.322 316.597 111.566 315.971 111.792C315.917 111.811 315.864 111.831 315.81 111.852C315.114 112.723 314.393 113.584 313.651 114.426C315.184 113.828 316.725 113.251 318.286 112.715C318.761 112.55 318.907 112.109 318.833 111.722Z"
        fill="#FBCCB7" />
    <path
        d="M297.355 180.601C300.801 177.953 303.343 174.301 304.559 170.118C304.861 169.085 303.25 168.645 302.95 169.674C302.176 172.337 300.793 174.813 298.948 176.88C298.923 176.96 298.9 177.04 298.876 177.12C298.761 177.498 298.471 177.675 298.165 177.7C297.643 178.216 297.099 178.713 296.513 179.161C296.486 179.183 296.468 179.21 296.443 179.233C296.147 179.5 296.003 179.884 296.201 180.262C296.207 180.276 296.207 180.289 296.213 180.303C296.418 180.654 296.996 180.878 297.355 180.601"
        fill="#FBCCB7" />
    <path
        d="M252.715 214.09C252.576 214.076 252.44 214.082 252.311 214.123C251.982 214.226 251.725 214.499 251.756 214.957C252.097 219.81 253.385 224.524 255.563 228.875C256.091 229.933 257.675 229.003 257.147 227.949C255.121 223.901 253.909 219.471 253.593 214.957C253.572 214.667 253.445 214.452 253.266 214.304C253.11 214.174 252.913 214.11 252.715 214.09"
        fill="#D25262" />
    <path
        d="M261.686 70.7443C261.684 70.6354 261.684 70.5265 261.688 70.4196L261.705 70.2142L261.713 70.1649C261.733 70.058 261.756 69.9532 261.785 69.8484C261.822 69.7149 261.914 69.5526 261.931 69.4129L261.972 69.3327L262.101 69.0923L262.198 68.9444L262.259 68.8786L262.311 68.8293L262.401 68.7759L262.438 68.7656C262.465 68.7574 262.494 68.7533 262.52 68.7512C262.5 68.7512 262.477 68.7512 262.442 68.7512H262.444C262.442 68.7512 262.444 68.7512 262.442 68.7512C262.43 68.7512 262.43 68.7533 262.415 68.7512L262.611 68.743C262.625 68.743 262.664 68.7451 262.705 68.7492C262.752 68.7574 262.808 68.7677 262.826 68.7738L262.995 68.8252L263.221 68.9567L263.229 68.9608L263.352 69.0759L263.49 69.232L263.535 69.2978L263.726 69.6512C263.716 69.6163 263.726 69.6183 263.765 69.7231L263.778 69.7457C263.776 69.7457 263.774 69.7395 263.772 69.7395C263.774 69.7395 263.774 69.7395 263.774 69.7416L263.845 69.9512C263.95 70.282 264.02 70.623 264.069 70.9662C264.108 71.2353 264.382 71.5312 264.604 71.6627C264.852 71.8065 265.22 71.8702 265.499 71.7798C265.781 71.6894 266.052 71.5127 266.194 71.2456C266.35 70.9497 266.358 70.6765 266.311 70.3498C266.112 68.9711 265.473 67.4691 264.162 66.8137C263.441 66.4541 262.609 66.3 261.82 66.5219C261.008 66.75 260.387 67.354 259.999 68.0855C259.568 68.9012 259.34 69.8197 259.36 70.7443C259.372 71.3504 259.886 71.936 260.523 71.9072C261.142 71.8784 261.698 71.3956 261.686 70.7443"
        fill="#200D0F" />
    <path d="M262.521 68.7512C262.627 68.7492 262.594 68.7451 262.521 68.7512Z" fill="#200D0F" />
    <path
        d="M263.727 69.6512C263.735 69.682 263.755 69.7272 263.772 69.7395C263.77 69.7292 263.77 69.7313 263.766 69.7231L263.727 69.6512"
        fill="#200D0F" />
    <path
        d="M298.964 151.671C299.451 153.079 299.782 154.501 300.001 155.933C301.066 162.867 299.284 170.009 297.267 176.677C297.069 177.328 297.639 177.741 298.165 177.7C298.471 177.675 298.76 177.498 298.875 177.12C298.9 177.04 298.923 176.96 298.947 176.88C301.503 168.39 303.595 159.078 300.303 150.486C298.964 146.985 296.815 143.812 293.792 141.552C291.489 139.83 288.836 138.731 286.079 137.991C285.555 138.429 285.035 138.871 284.52 139.317C287.396 139.98 290.188 141.008 292.607 142.742C295.639 144.916 297.758 148.174 298.964 151.671"
        fill="#FBCCB7" />
    <path
        d="M182.179 210.626C187.861 209.455 193.667 209.013 199.46 209.342C200.637 209.407 200.64 211.244 199.46 211.178C193.829 210.858 188.191 211.259 182.667 212.397C181.511 212.635 181.022 210.864 182.179 210.626V210.626ZM180.212 213.268C180.997 213.706 182.41 214.238 183.464 214.895C183.436 214.509 183.616 214.125 184.105 214.01C187.979 213.1 191.984 212.843 195.94 213.291C196.434 213.348 196.857 213.667 196.857 214.209C196.857 214.665 196.433 215.183 195.94 215.128C192.143 214.698 188.314 214.906 184.593 215.779C184.561 215.787 184.536 215.779 184.505 215.783C184.552 215.845 184.613 215.904 184.649 215.97C184.881 216.383 184.75 216.923 184.961 217.359C185.259 217.973 185.828 218.273 186.433 218.524C192.854 221.176 199.853 222.035 206.755 222.835C207.961 222.972 209.2 223.102 210.383 222.904C210.661 222.859 210.936 222.8 211.205 222.713C213.757 221.894 215.366 219.274 216.749 217.149C217.832 215.487 223.196 213.975 222.27 211.859C221.604 210.334 218.44 209.284 215.504 208.635C213.5 208.193 211.602 207.934 210.677 207.85C210.268 207.811 209.862 207.778 209.453 207.747C206.438 207.519 203.412 207.468 200.39 207.525C193.619 207.653 186.874 208.316 180.12 208.764C179.49 208.805 178.801 208.871 178.355 209.319C177.909 209.765 177.997 210.722 178.619 210.835C178.517 211.068 178.51 211.324 178.561 211.571C178.618 211.844 178.748 212.111 178.927 212.327C179.268 212.736 179.746 213.007 180.212 213.268"
        fill="#F68168" />
    <path
        d="M195.939 215.127C196.433 215.183 196.857 214.665 196.857 214.209C196.857 213.667 196.434 213.348 195.939 213.291C191.983 212.843 187.979 213.1 184.104 214.01C183.615 214.125 183.436 214.509 183.464 214.895C183.5 215.39 183.895 215.871 184.505 215.783C184.535 215.779 184.561 215.787 184.592 215.779C188.313 214.906 192.142 214.698 195.939 215.127"
        fill="#D25262" />
    <path
        d="M182.666 212.397C188.19 211.259 193.828 210.858 199.459 211.179C200.64 211.244 200.636 209.407 199.459 209.342C193.666 209.013 187.86 209.455 182.178 210.626C181.021 210.864 181.511 212.635 182.666 212.397"
        fill="#D25262" />
    <path
        d="M248.53 139.82C248.485 140.276 248.46 140.734 248.425 141.19C248.329 142.485 248.275 143.779 248.259 145.076C248.138 154.605 250.18 164.159 254.203 172.793C255.732 176.074 257.548 179.216 259.638 182.175C259.999 182.686 260.347 183.206 260.725 183.708C262.249 171.864 266.301 160.19 273.538 150.691C274.431 149.52 275.37 148.39 276.342 147.291C278.863 144.439 281.627 141.815 284.52 139.316C285.035 138.871 285.555 138.429 286.079 137.991C291.095 133.794 296.429 129.906 301.534 125.823C305.89 122.339 310.02 118.554 313.651 114.426C314.393 113.584 315.114 112.723 315.81 111.852C315.821 111.839 315.829 111.827 315.839 111.815C316.979 110.387 318.054 108.918 319.061 107.408C324.012 99.9758 327.203 91.5537 327.392 81.942C327.655 68.6956 323.234 55.4943 315.42 44.8368C311.812 39.9138 306.979 34.1546 301.469 31.3212C295.017 28.0029 287.754 27.2098 280.595 27.5879C275.323 27.8653 269.806 28.8289 265.715 32.1636C262.866 34.4834 260.94 37.8838 260.355 41.5082C260.303 41.8226 260.246 42.137 260.215 42.4555C260.094 43.7314 260.176 45.0053 260.396 46.2669C260.955 49.4639 262.432 52.5726 263.946 55.4019C264.129 55.7409 264.31 56.0758 264.491 56.4066C264.889 57.1319 265.294 57.851 265.703 58.5702C268.142 62.848 270.696 67.0066 272.527 71.6296C273.256 73.4685 273.879 75.3753 274.364 77.317C276.03 83.9926 276.061 91.075 273.131 97.2123C271.997 99.5895 270.466 101.652 268.775 103.584C266.145 106.592 263.122 109.285 260.571 112.357C256.241 117.572 252.266 122.941 250.423 129.579C249.901 131.453 249.498 133.354 249.165 135.267C249.112 135.571 249.046 135.873 248.999 136.177C248.808 137.387 248.649 138.601 248.53 139.82"
        fill="#200D0F" />
    <path
        d="M278.66 372.527C278.724 373.098 278.792 373.68 278.909 374.241C281.113 374.496 283.322 374.576 285.553 374.276C287.514 374.013 289.439 373.721 291.346 373.423C291.35 373.226 291.35 373.029 291.35 372.833C291.255 358.925 291.65 345.015 292.527 331.146C292.753 327.557 293.012 323.969 293.304 320.386C293.429 318.847 293.986 316.344 294.236 314.101C292.011 314.082 289.786 314.051 287.561 314.006C284.372 313.938 281.193 313.832 278.017 313.712C277.91 313.708 277.803 313.7 277.696 313.696C276.188 333.271 276.501 353.037 278.66 372.527"
        fill="#121428" />
    <path
        d="M326.098 401.525C326.825 402.792 327.618 404.019 328.6 405.098C330.18 406.83 332.307 408.186 334.647 408.342C335.792 408.42 336.936 408.211 338.05 407.935C339.371 407.607 340.443 407.005 341.043 406.29C341.008 406.277 340.969 406.267 340.934 406.257C335.989 404.679 331.043 403.101 326.098 401.525"
        fill="#121428" />
    <path
        d="M249.015 407.674C249.971 408.042 251.181 408.186 252.52 407.987C255.251 407.578 257.877 406.374 259.886 404.481C261.471 402.992 262.648 401.067 263.24 398.979C258.477 401.685 254.17 404.488 251.002 406.55C250.371 406.963 249.71 407.385 249.015 407.674"
        fill="#121428" />
    <path
        d="M324.791 373.018C323.158 371.862 321.13 371.49 319.118 371.299C318.81 371.27 318.504 371.245 318.198 371.223C313.071 370.843 308.212 371.12 303.404 371.675C300.526 372.005 297.666 372.435 294.781 372.887C293.64 373.066 292.496 373.244 291.345 373.423C289.439 373.721 287.513 374.013 285.553 374.276C283.322 374.576 281.113 374.496 278.909 374.241C272.126 373.462 265.37 371.038 258.019 372.899C255.867 373.444 253.737 374.266 251.931 375.525C251.263 375.989 250.638 376.509 250.077 377.105C248.873 378.377 248.128 380.721 249.603 381.667C249.962 381.895 250.392 381.985 250.809 382.069C250.908 382.09 251.006 382.108 251.105 382.129C253.404 382.595 255.705 383.062 258.006 383.528C256.509 385.694 250.513 387.105 248.197 389.304C245.397 391.958 243.326 395.57 242.849 399.345C242.689 400.619 242.709 401.911 242.948 403.191C243.377 405.503 244.939 407.985 247.291 408.042C247.891 408.059 248.465 407.907 249.015 407.674C249.71 407.385 250.371 406.964 251.002 406.551C254.17 404.488 258.477 401.685 263.24 398.979C272.989 393.44 284.662 388.311 292.457 390.797C303.671 394.373 314.886 397.95 326.098 401.525C331.044 403.101 335.989 404.679 340.935 406.257C340.97 406.267 341.009 406.277 341.044 406.29C342.217 406.657 343.569 406.972 344.565 406.267C345.245 405.784 345.566 404.94 345.745 404.126C346.762 399.524 344.358 394.689 340.805 391.593C337.251 388.496 332.706 386.813 328.231 385.332C324.163 383.984 319.942 382.207 315.607 382.355C317.497 381.484 319.435 381.535 321.506 381.41C323.454 381.291 325.611 380.73 326.603 379.051C327.606 377.354 326.94 375.135 325.554 373.69C325.315 373.444 325.065 373.214 324.791 373.018"
        fill="#121428" />
    <path
        d="M334.565 279.389C333.918 282.093 333.345 284.809 332.823 287.518C331.68 293.437 333.741 303.458 327.049 306.351C324.216 307.575 320.978 307.164 317.92 306.729C316.159 306.478 314.257 306.157 313.032 304.867C311.74 303.509 311.567 301.46 311.516 299.587C311.333 292.977 311.746 286.092 312.747 279.313C300.778 278.756 288.789 278.469 276.8 278.481C286.079 283.875 293.423 293.166 287.721 304.473C285.625 308.613 282.142 311.59 278.017 313.712C281.193 313.832 284.372 313.938 287.561 314.006C289.786 314.051 292.011 314.082 294.236 314.101C294.417 314.103 294.6 314.107 294.781 314.109C297.655 314.132 300.53 314.127 303.404 314.105C308.643 314.064 313.883 313.943 319.118 313.745C323.207 313.593 327.296 313.398 331.38 313.145C334.257 312.969 337.133 312.765 340.006 312.539C342.217 312.365 344.428 312.182 346.636 311.976C351.51 311.522 356.823 310.709 360.08 307.064C363.805 302.884 363.443 296.25 360.814 291.31C356.811 283.774 349.866 280.914 342.118 279.895C339.657 279.572 337.119 279.43 334.565 279.389"
        fill="#2E3192" />
    <path
        d="M258.592 285.878C260.191 283.509 261.709 281.084 263.188 278.637C260.24 278.697 257.289 278.783 254.339 278.878C255.742 281.224 257.168 283.556 258.592 285.878Z"
        fill="#26285C" />
    <path
        d="M265.046 288.214C264.398 289.194 263.733 290.137 263.022 291.07C262.658 291.547 262.292 292.023 261.945 292.51C261.857 292.632 261.773 292.757 261.686 292.882C261.627 293.192 261.534 293.371 261.46 293.443C260.451 295.586 256.86 295.859 255.508 293.632C252.613 288.867 249.654 284.094 246.835 279.241C239.675 279.891 232.457 281.734 228.635 287.546C226.391 290.936 225.777 295.181 225.91 299.254C226.003 302.243 226.537 305.381 228.433 307.69C230.85 310.653 235.536 311.781 240.597 312.194C246.554 312.677 253.03 312.167 256.95 312.469C263.852 313.01 270.768 313.417 277.696 313.696C277.803 313.7 277.91 313.708 278.017 313.712C282.142 311.59 285.625 308.613 287.721 304.473C293.423 293.166 286.079 283.875 276.8 278.481C274.875 278.483 272.95 278.522 271.025 278.539C269.097 281.806 267.133 285.048 265.046 288.214"
        fill="#26285C" />
    <path
        d="M261.573 293.043C261.296 293.4 261.347 293.552 261.46 293.443C261.534 293.289 261.591 293.127 261.635 292.954C261.614 292.983 261.596 293.014 261.573 293.043Z"
        fill="#26285C" />
    <path
        d="M261.727 291.947C261.754 292.315 261.713 292.646 261.635 292.954C261.653 292.929 261.67 292.905 261.686 292.882C261.731 292.646 261.756 292.344 261.727 291.947Z"
        fill="#26285C" />
    <path
        d="M318.358 257.378C317.805 258.882 317.345 260.295 316.965 261.417C315.044 267.1 313.655 273.164 312.746 279.313C311.746 286.092 311.333 292.977 311.516 299.587C311.567 301.461 311.74 303.509 313.032 304.867C314.257 306.158 316.159 306.478 317.92 306.729C320.977 307.164 324.216 307.575 327.049 306.351C333.741 303.458 331.68 293.437 332.823 287.518C333.345 284.81 333.918 282.093 334.565 279.389C336.328 272.015 338.637 264.75 341.902 258.048C334.053 258.512 326.166 258.298 318.358 257.378Z"
        fill="#121428" />
    <path
        d="M337.627 148.996C332.586 154.127 328.917 160.33 326.005 166.905C323.488 172.588 321.576 178.653 319.782 184.645C317.602 191.928 315.592 199.264 313.755 206.644C311.919 214.022 310.254 221.444 308.763 228.9C308.105 232.19 307.261 236.026 306.874 239.017C306.494 241.988 306.453 244.298 308.148 246.507C309.254 247.945 308.356 250.25 306.95 251.072C305.257 252.064 303.48 251.302 302.385 249.876C300.034 246.813 299.763 242.72 300.201 239.017C300.71 234.7 301.662 230.412 302.523 226.153C305.611 210.858 309.416 195.695 313.979 180.772C318.005 167.609 323.086 154.273 332.907 144.277C335.923 141.207 340.641 145.931 337.627 148.996V148.996ZM321.954 145.516C318.976 149.424 317.164 154.075 315.473 158.69C309.969 173.808 305.292 189.212 301.559 204.865C299.032 215.458 295.859 226.656 294.318 237.639C295.313 238.592 296.186 239.782 296.899 241.277C298.368 244.341 298.621 248.485 296.64 251.121C296.488 251.323 296.318 251.495 296.149 251.67C296.613 251.943 297.096 252.188 297.577 252.403C302.592 254.666 308.023 255.866 313.46 256.714C315.089 256.969 316.722 257.185 318.358 257.378C326.166 258.298 334.054 258.512 341.902 258.048C344.362 257.902 346.817 257.706 349.266 257.425C349.441 257.404 349.618 257.386 349.792 257.367C360.035 256.213 370.376 255.535 376.324 246.287C378.327 243.172 379.61 239.658 380.834 236.163C388.899 213.165 395.268 189.574 399.871 165.643C401.034 159.59 402.081 153.321 400.709 147.313C400.006 144.24 398.634 141.256 396.39 139.041C393.15 135.844 388.51 134.583 384.058 133.638C376.489 132.033 367.882 130.671 359.328 130.578C351.109 130.488 342.944 131.579 335.79 134.737C330.493 137.073 325.747 140.535 321.954 145.516"
        fill="#2E3192" />
    <path
        d="M302.523 226.153C301.662 230.412 300.71 234.7 300.201 239.017C299.763 242.72 300.034 246.813 302.385 249.876C303.48 251.302 305.257 252.064 306.95 251.072C308.356 250.25 309.254 247.945 308.148 246.506C306.453 244.298 306.494 241.988 306.874 239.017C307.261 236.026 308.105 232.19 308.763 228.9C310.254 221.444 311.919 214.022 313.755 206.644C315.592 199.263 317.602 191.928 319.782 184.645C321.575 178.653 323.488 172.588 326.005 166.905C328.917 160.33 332.586 154.127 337.626 148.996C340.641 145.931 335.923 141.207 332.907 144.277C323.086 154.272 318.004 167.609 313.979 180.771C309.416 195.695 305.611 210.858 302.523 226.153"
        fill="#26285C" />
    <path
        d="M261.46 293.443C261.347 293.552 261.296 293.4 261.573 293.043C261.596 293.014 261.614 292.983 261.635 292.954C261.713 292.646 261.754 292.315 261.727 291.947C261.756 292.344 261.731 292.646 261.686 292.882C261.772 292.757 261.857 292.632 261.945 292.51C262.292 292.023 262.658 291.547 263.022 291.07C263.732 290.137 264.398 289.194 265.045 288.214C267.133 285.048 269.097 281.806 271.024 278.539C271.279 278.105 271.538 277.674 271.793 277.238C274.02 273.437 276.21 269.611 278.493 265.843C280.755 262.114 283.291 258.539 285.43 254.737C282.693 255.021 279.952 255.255 277.207 255.442C275.631 257.93 273.991 260.382 272.473 262.901C270.112 266.811 267.85 270.778 265.532 274.713C264.76 276.026 263.977 277.335 263.188 278.637C261.709 281.084 260.19 283.509 258.592 285.878C257.168 283.556 255.742 281.224 254.339 278.878C249.82 271.321 245.559 263.587 242.452 255.387C241.914 255.35 241.374 255.323 240.835 255.282C239.44 255.177 237.449 255.298 235.335 255.323C238.273 263.685 242.376 271.565 246.835 279.241C249.654 284.094 252.613 288.867 255.508 293.632C256.86 295.86 260.451 295.586 261.46 293.443"
        fill="#121428" />
    <path
        d="M261.46 293.443C261.534 293.371 261.626 293.192 261.686 292.882C261.67 292.905 261.653 292.929 261.635 292.954C261.591 293.127 261.534 293.289 261.46 293.443Z"
        fill="#121428" />
    <path
        d="M257.431 250.053C256.332 252.654 254.47 254.54 252.255 255.898C253.977 255.95 255.699 255.991 257.427 256.009C264.022 256.075 270.624 255.892 277.207 255.442C279.952 255.255 282.693 255.021 285.43 254.737C286.755 254.602 288.08 254.454 289.402 254.294C291.808 254 294.396 253.5 296.149 251.67C296.318 251.495 296.488 251.323 296.64 251.121C298.621 248.485 298.368 244.341 296.899 241.277C296.186 239.781 295.313 238.592 294.318 237.638C290.585 234.061 285.14 233.897 279.932 234.076C277.427 234.16 274.976 234.324 272.8 234.224C265.635 233.899 258.46 233.79 251.29 233.899C256.36 237.199 260.418 242.946 257.431 250.053Z"
        fill="#2E3192" />
    <path
        d="M240.835 255.282C241.374 255.323 241.914 255.35 242.452 255.387C245.715 255.615 248.982 255.793 252.255 255.898C254.47 254.54 256.332 252.654 257.431 250.053C260.418 242.946 256.36 237.199 251.289 233.899C246.757 233.971 242.23 234.135 237.7 234.382C236.888 234.427 236.056 234.491 235.222 234.585C231.3 235.033 227.33 236.219 225.281 239.927C224.098 242.062 223.802 244.719 223.909 247.262C223.987 249.128 224.303 251.084 225.349 252.512C225.797 253.124 226.389 253.595 227.069 253.975C229.245 255.189 232.403 255.356 235.335 255.323C237.449 255.298 239.44 255.177 240.835 255.282"
        fill="#26285C" />
</svg>