<?xml version="1.0" standalone="no"?>
<!DOCTYPE svg PUBLIC "-//W3C//DTD SVG 20010904//EN"
 "http://www.w3.org/TR/2001/REC-SVG-20010904/DTD/svg10.dtd">
<svg version="1.0" xmlns="http://www.w3.org/2000/svg"
 width="64.000000pt" height="64.000000pt" viewBox="0 0 64.000000 64.000000"
 preserveAspectRatio="xMidYMid meet">

<g transform="translate(0.000000,64.000000) scale(0.100000,-0.100000)"
fill="#ffffff" stroke="none">
<path d="M310 510 c0 -27 5 -50 10 -50 6 0 10 23 10 50 0 28 -4 50 -10 50 -5
0 -10 -22 -10 -50z"/>
<path d="M160 508 c0 -19 38 -78 50 -78 14 0 13 7 -12 51 -22 39 -38 50 -38
27z"/>
<path d="M442 481 c-25 -44 -26 -51 -12 -51 12 0 50 59 50 78 0 23 -16 12 -38
-27z"/>
<path d="M230 395 c-100 -28 -240 -129 -222 -160 15 -28 126 -105 179 -125 80
-30 140 -34 214 -16 105 27 250 128 231 161 -15 28 -126 105 -181 125 -73 28
-154 33 -221 15z m180 -50 c62 -59 61 -141 0 -200 -27 -26 -39 -30 -90 -30
-51 0 -63 4 -89 29 -58 56 -63 128 -13 187 33 40 57 50 115 45 36 -2 55 -10
77 -31z m-231 -22 c-24 -47 -24 -109 0 -155 l18 -37 -31 16 c-17 8 -55 33 -85
55 l-53 40 23 24 c19 18 135 94 145 94 1 0 -7 -17 -17 -37z m396 -46 l38 -31
-36 -31 c-20 -17 -59 -44 -87 -59 l-51 -28 21 38 c25 48 26 109 1 157 l-19 37
48 -26 c26 -14 65 -40 85 -57z"/>
<path d="M280 290 c-11 -11 -20 -31 -20 -45 0 -30 32 -65 60 -65 28 0 60 35
60 65 0 30 -32 65 -60 65 -11 0 -29 -9 -40 -20z"/>
</g>
</svg>
